<?xml version="1.0" standalone="no"?>
<!DOCTYPE svg PUBLIC "-//W3C//DTD SVG 1.1//EN"
  "http://www.w3.org/Graphics/SVG/1.1/DTD/svg11.dtd">
<svg width="702" height="104" version="1.1"
  xmlns="http://www.w3.org/2000/svg">
<rect x="27" y="14" width="11" height="11" rx="0" ry="0" style="fill:#d6e685;"/><rect x="40" y="14" width="11" height="11" rx="0" ry="0" style="fill:#eeeeee;"/><rect x="53" y="14" width="11" height="11" rx="0" ry="0" style="fill:#eeeeee;"/><rect x="66" y="14" width="11" height="11" rx="0" ry="0" style="fill:#eeeeee;"/><rect x="79" y="14" width="11" height="11" rx="0" ry="0" style="fill:#eeeeee;"/><rect x="92" y="14" width="11" height="11" rx="0" ry="0" style="fill:#eeeeee;"/><rect x="105" y="14" width="11" height="11" rx="0" ry="0" style="fill:#eeeeee;"/><rect x="118" y="14" width="11" height="11" rx="0" ry="0" style="fill:#eeeeee;"/><rect x="131" y="14" width="11" height="11" rx="0" ry="0" style="fill:#eeeeee;"/><rect x="144" y="14" width="11" height="11" rx="0" ry="0" style="fill:#eeeeee;"/><rect x="157" y="14" width="11" height="11" rx="0" ry="0" style="fill:#eeeeee;"/><rect x="170" y="14" width="11" height="11" rx="0" ry="0" style="fill:#eeeeee;"/><rect x="183" y="14" width="11" height="11" rx="0" ry="0" style="fill:#d6e685;"/><rect x="196" y="14" width="11" height="11" rx="0" ry="0" style="fill:#eeeeee;"/><rect x="209" y="14" width="11" height="11" rx="0" ry="0" style="fill:#d6e685;"/><rect x="222" y="14" width="11" height="11" rx="0" ry="0" style="fill:#d6e685;"/><rect x="235" y="14" width="11" height="11" rx="0" ry="0" style="fill:#8cc665;"/><rect x="248" y="14" width="11" height="11" rx="0" ry="0" style="fill:#44a340;"/><rect x="261" y="14" width="11" height="11" rx="0" ry="0" style="fill:#8cc665;"/><rect x="274" y="14" width="11" height="11" rx="0" ry="0" style="fill:#d6e685;"/><rect x="287" y="14" width="11" height="11" rx="0" ry="0" style="fill:#44a340;"/><rect x="300" y="14" width="11" height="11" rx="0" ry="0" style="fill:#44a340;"/><rect x="313" y="14" width="11" height="11" rx="0" ry="0" style="fill:#d6e685;"/><rect x="326" y="14" width="11" height="11" rx="0" ry="0" style="fill:#d6e685;"/><rect x="339" y="14" width="11" height="11" rx="0" ry="0" style="fill:#44a340;"/><rect x="352" y="14" width="11" height="11" rx="0" ry="0" style="fill:#d6e685;"/><rect x="365" y="14" width="11" height="11" rx="0" ry="0" style="fill:#d6e685;"/><rect x="378" y="14" width="11" height="11" rx="0" ry="0" style="fill:#d6e685;"/><rect x="391" y="14" width="11" height="11" rx="0" ry="0" style="fill:#d6e685;"/><rect x="404" y="14" width="11" height="11" rx="0" ry="0" style="fill:#d6e685;"/><rect x="417" y="14" width="11" height="11" rx="0" ry="0" style="fill:#d6e685;"/><rect x="430" y="14" width="11" height="11" rx="0" ry="0" style="fill:#d6e685;"/><rect x="443" y="14" width="11" height="11" rx="0" ry="0" style="fill:#d6e685;"/><rect x="456" y="14" width="11" height="11" rx="0" ry="0" style="fill:#d6e685;"/><rect x="469" y="14" width="11" height="11" rx="0" ry="0" style="fill:#d6e685;"/><rect x="482" y="14" width="11" height="11" rx="0" ry="0" style="fill:#d6e685;"/><rect x="495" y="14" width="11" height="11" rx="0" ry="0" style="fill:#d6e685;"/><rect x="508" y="14" width="11" height="11" rx="0" ry="0" style="fill:#44a340;"/><rect x="521" y="14" width="11" height="11" rx="0" ry="0" style="fill:#8cc665;"/><rect x="534" y="14" width="11" height="11" rx="0" ry="0" style="fill:#8cc665;"/><rect x="547" y="14" width="11" height="11" rx="0" ry="0" style="fill:#1e6823;"/><rect x="560" y="14" width="11" height="11" rx="0" ry="0" style="fill:#d6e685;"/><rect x="573" y="14" width="11" height="11" rx="0" ry="0" style="fill:#d6e685;"/><rect x="586" y="14" width="11" height="11" rx="0" ry="0" style="fill:#d6e685;"/><rect x="599" y="14" width="11" height="11" rx="0" ry="0" style="fill:#d6e685;"/><rect x="612" y="14" width="11" height="11" rx="0" ry="0" style="fill:#8cc665;"/><rect x="625" y="14" width="11" height="11" rx="0" ry="0" style="fill:#44a340;"/><rect x="638" y="14" width="11" height="11" rx="0" ry="0" style="fill:#1e6823;"/><rect x="651" y="14" width="11" height="11" rx="0" ry="0" style="fill:#8cc665;"/><rect x="664" y="14" width="11" height="11" rx="0" ry="0" style="fill:#d6e685;"/><rect x="677" y="14" width="11" height="11" rx="0" ry="0" style="fill:#8cc665;"/><rect x="690" y="14" width="11" height="11" rx="0" ry="0" style="fill:#d6e685;"/><rect x="27" y="27" width="11" height="11" rx="0" ry="0" style="fill:#eeeeee;"/><rect x="40" y="27" width="11" height="11" rx="0" ry="0" style="fill:#eeeeee;"/><rect x="53" y="27" width="11" height="11" rx="0" ry="0" style="fill:#eeeeee;"/><rect x="66" y="27" width="11" height="11" rx="0" ry="0" style="fill:#d6e685;"/><rect x="79" y="27" width="11" height="11" rx="0" ry="0" style="fill:#eeeeee;"/><rect x="92" y="27" width="11" height="11" rx="0" ry="0" style="fill:#eeeeee;"/><rect x="105" y="27" width="11" height="11" rx="0" ry="0" style="fill:#eeeeee;"/><rect x="118" y="27" width="11" height="11" rx="0" ry="0" style="fill:#eeeeee;"/><rect x="131" y="27" width="11" height="11" rx="0" ry="0" style="fill:#eeeeee;"/><rect x="144" y="27" width="11" height="11" rx="0" ry="0" style="fill:#eeeeee;"/><rect x="157" y="27" width="11" height="11" rx="0" ry="0" style="fill:#eeeeee;"/><rect x="170" y="27" width="11" height="11" rx="0" ry="0" style="fill:#d6e685;"/><rect x="183" y="27" width="11" height="11" rx="0" ry="0" style="fill:#eeeeee;"/><rect x="196" y="27" width="11" height="11" rx="0" ry="0" style="fill:#eeeeee;"/><rect x="209" y="27" width="11" height="11" rx="0" ry="0" style="fill:#d6e685;"/><rect x="222" y="27" width="11" height="11" rx="0" ry="0" style="fill:#d6e685;"/><rect x="235" y="27" width="11" height="11" rx="0" ry="0" style="fill:#8cc665;"/><rect x="248" y="27" width="11" height="11" rx="0" ry="0" style="fill:#d6e685;"/><rect x="261" y="27" width="11" height="11" rx="0" ry="0" style="fill:#d6e685;"/><rect x="274" y="27" width="11" height="11" rx="0" ry="0" style="fill:#44a340;"/><rect x="287" y="27" width="11" height="11" rx="0" ry="0" style="fill:#d6e685;"/><rect x="300" y="27" width="11" height="11" rx="0" ry="0" style="fill:#d6e685;"/><rect x="313" y="27" width="11" height="11" rx="0" ry="0" style="fill:#d6e685;"/><rect x="326" y="27" width="11" height="11" rx="0" ry="0" style="fill:#d6e685;"/><rect x="339" y="27" width="11" height="11" rx="0" ry="0" style="fill:#8cc665;"/><rect x="352" y="27" width="11" height="11" rx="0" ry="0" style="fill:#d6e685;"/><rect x="365" y="27" width="11" height="11" rx="0" ry="0" style="fill:#d6e685;"/><rect x="378" y="27" width="11" height="11" rx="0" ry="0" style="fill:#8cc665;"/><rect x="391" y="27" width="11" height="11" rx="0" ry="0" style="fill:#8cc665;"/><rect x="404" y="27" width="11" height="11" rx="0" ry="0" style="fill:#d6e685;"/><rect x="417" y="27" width="11" height="11" rx="0" ry="0" style="fill:#d6e685;"/><rect x="430" y="27" width="11" height="11" rx="0" ry="0" style="fill:#8cc665;"/><rect x="443" y="27" width="11" height="11" rx="0" ry="0" style="fill:#d6e685;"/><rect x="456" y="27" width="11" height="11" rx="0" ry="0" style="fill:#d6e685;"/><rect x="469" y="27" width="11" height="11" rx="0" ry="0" style="fill:#d6e685;"/><rect x="482" y="27" width="11" height="11" rx="0" ry="0" style="fill:#d6e685;"/><rect x="495" y="27" width="11" height="11" rx="0" ry="0" style="fill:#d6e685;"/><rect x="508" y="27" width="11" height="11" rx="0" ry="0" style="fill:#1e6823;"/><rect x="521" y="27" width="11" height="11" rx="0" ry="0" style="fill:#d6e685;"/><rect x="534" y="27" width="11" height="11" rx="0" ry="0" style="fill:#1e6823;"/><rect x="547" y="27" width="11" height="11" rx="0" ry="0" style="fill:#d6e685;"/><rect x="560" y="27" width="11" height="11" rx="0" ry="0" style="fill:#d6e685;"/><rect x="573" y="27" width="11" height="11" rx="0" ry="0" style="fill:#44a340;"/><rect x="586" y="27" width="11" height="11" rx="0" ry="0" style="fill:#8cc665;"/><rect x="599" y="27" width="11" height="11" rx="0" ry="0" style="fill:#d6e685;"/><rect x="612" y="27" width="11" height="11" rx="0" ry="0" style="fill:#8cc665;"/><rect x="625" y="27" width="11" height="11" rx="0" ry="0" style="fill:#8cc665;"/><rect x="638" y="27" width="11" height="11" rx="0" ry="0" style="fill:#8cc665;"/><rect x="651" y="27" width="11" height="11" rx="0" ry="0" style="fill:#8cc665;"/><rect x="664" y="27" width="11" height="11" rx="0" ry="0" style="fill:#d6e685;"/><rect x="677" y="27" width="11" height="11" rx="0" ry="0" style="fill:#44a340;"/><rect x="690" y="27" width="11" height="11" rx="0" ry="0" style="fill:#d6e685;"/><rect x="27" y="40" width="11" height="11" rx="0" ry="0" style="fill:#eeeeee;"/><rect x="40" y="40" width="11" height="11" rx="0" ry="0" style="fill:#eeeeee;"/><rect x="53" y="40" width="11" height="11" rx="0" ry="0" style="fill:#eeeeee;"/><rect x="66" y="40" width="11" height="11" rx="0" ry="0" style="fill:#eeeeee;"/><rect x="79" y="40" width="11" height="11" rx="0" ry="0" style="fill:#eeeeee;"/><rect x="92" y="40" width="11" height="11" rx="0" ry="0" style="fill:#eeeeee;"/><rect x="105" y="40" width="11" height="11" rx="0" ry="0" style="fill:#eeeeee;"/><rect x="118" y="40" width="11" height="11" rx="0" ry="0" style="fill:#d6e685;"/><rect x="131" y="40" width="11" height="11" rx="0" ry="0" style="fill:#eeeeee;"/><rect x="144" y="40" width="11" height="11" rx="0" ry="0" style="fill:#eeeeee;"/><rect x="157" y="40" width="11" height="11" rx="0" ry="0" style="fill:#eeeeee;"/><rect x="170" y="40" width="11" height="11" rx="0" ry="0" style="fill:#eeeeee;"/><rect x="183" y="40" width="11" height="11" rx="0" ry="0" style="fill:#eeeeee;"/><rect x="196" y="40" width="11" height="11" rx="0" ry="0" style="fill:#d6e685;"/><rect x="209" y="40" width="11" height="11" rx="0" ry="0" style="fill:#d6e685;"/><rect x="222" y="40" width="11" height="11" rx="0" ry="0" style="fill:#d6e685;"/><rect x="235" y="40" width="11" height="11" rx="0" ry="0" style="fill:#d6e685;"/><rect x="248" y="40" width="11" height="11" rx="0" ry="0" style="fill:#8cc665;"/><rect x="261" y="40" width="11" height="11" rx="0" ry="0" style="fill:#44a340;"/><rect x="274" y="40" width="11" height="11" rx="0" ry="0" style="fill:#d6e685;"/><rect x="287" y="40" width="11" height="11" rx="0" ry="0" style="fill:#d6e685;"/><rect x="300" y="40" width="11" height="11" rx="0" ry="0" style="fill:#d6e685;"/><rect x="313" y="40" width="11" height="11" rx="0" ry="0" style="fill:#d6e685;"/><rect x="326" y="40" width="11" height="11" rx="0" ry="0" style="fill:#d6e685;"/><rect x="339" y="40" width="11" height="11" rx="0" ry="0" style="fill:#8cc665;"/><rect x="352" y="40" width="11" height="11" rx="0" ry="0" style="fill:#d6e685;"/><rect x="365" y="40" width="11" height="11" rx="0" ry="0" style="fill:#8cc665;"/><rect x="378" y="40" width="11" height="11" rx="0" ry="0" style="fill:#d6e685;"/><rect x="391" y="40" width="11" height="11" rx="0" ry="0" style="fill:#d6e685;"/><rect x="404" y="40" width="11" height="11" rx="0" ry="0" style="fill:#d6e685;"/><rect x="417" y="40" width="11" height="11" rx="0" ry="0" style="fill:#8cc665;"/><rect x="430" y="40" width="11" height="11" rx="0" ry="0" style="fill:#8cc665;"/><rect x="443" y="40" width="11" height="11" rx="0" ry="0" style="fill:#d6e685;"/><rect x="456" y="40" width="11" height="11" rx="0" ry="0" style="fill:#d6e685;"/><rect x="469" y="40" width="11" height="11" rx="0" ry="0" style="fill:#d6e685;"/><rect x="482" y="40" width="11" height="11" rx="0" ry="0" style="fill:#d6e685;"/><rect x="495" y="40" width="11" height="11" rx="0" ry="0" style="fill:#d6e685;"/><rect x="508" y="40" width="11" height="11" rx="0" ry="0" style="fill:#d6e685;"/><rect x="521" y="40" width="11" height="11" rx="0" ry="0" style="fill:#d6e685;"/><rect x="534" y="40" width="11" height="11" rx="0" ry="0" style="fill:#d6e685;"/><rect x="547" y="40" width="11" height="11" rx="0" ry="0" style="fill:#d6e685;"/><rect x="560" y="40" width="11" height="11" rx="0" ry="0" style="fill:#8cc665;"/><rect x="573" y="40" width="11" height="11" rx="0" ry="0" style="fill:#8cc665;"/><rect x="586" y="40" width="11" height="11" rx="0" ry="0" style="fill:#d6e685;"/><rect x="599" y="40" width="11" height="11" rx="0" ry="0" style="fill:#8cc665;"/><rect x="612" y="40" width="11" height="11" rx="0" ry="0" style="fill:#d6e685;"/><rect x="625" y="40" width="11" height="11" rx="0" ry="0" style="fill:#d6e685;"/><rect x="638" y="40" width="11" height="11" rx="0" ry="0" style="fill:#44a340;"/><rect x="651" y="40" width="11" height="11" rx="0" ry="0" style="fill:#d6e685;"/><rect x="664" y="40" width="11" height="11" rx="0" ry="0" style="fill:#d6e685;"/><rect x="677" y="40" width="11" height="11" rx="0" ry="0" style="fill:#d6e685;"/><rect x="690" y="40" width="11" height="11" rx="0" ry="0" style="fill:#d6e685;"/><rect x="27" y="53" width="11" height="11" rx="0" ry="0" style="fill:#eeeeee;"/><rect x="40" y="53" width="11" height="11" rx="0" ry="0" style="fill:#eeeeee;"/><rect x="53" y="53" width="11" height="11" rx="0" ry="0" style="fill:#eeeeee;"/><rect x="66" y="53" width="11" height="11" rx="0" ry="0" style="fill:#eeeeee;"/><rect x="79" y="53" width="11" height="11" rx="0" ry="0" style="fill:#eeeeee;"/><rect x="92" y="53" width="11" height="11" rx="0" ry="0" style="fill:#eeeeee;"/><rect x="105" y="53" width="11" height="11" rx="0" ry="0" style="fill:#eeeeee;"/><rect x="118" y="53" width="11" height="11" rx="0" ry="0" style="fill:#d6e685;"/><rect x="131" y="53" width="11" height="11" rx="0" ry="0" style="fill:#eeeeee;"/><rect x="144" y="53" width="11" height="11" rx="0" ry="0" style="fill:#eeeeee;"/><rect x="157" y="53" width="11" height="11" rx="0" ry="0" style="fill:#d6e685;"/><rect x="170" y="53" width="11" height="11" rx="0" ry="0" style="fill:#eeeeee;"/><rect x="183" y="53" width="11" height="11" rx="0" ry="0" style="fill:#eeeeee;"/><rect x="196" y="53" width="11" height="11" rx="0" ry="0" style="fill:#d6e685;"/><rect x="209" y="53" width="11" height="11" rx="0" ry="0" style="fill:#8cc665;"/><rect x="222" y="53" width="11" height="11" rx="0" ry="0" style="fill:#d6e685;"/><rect x="235" y="53" width="11" height="11" rx="0" ry="0" style="fill:#8cc665;"/><rect x="248" y="53" width="11" height="11" rx="0" ry="0" style="fill:#8cc665;"/><rect x="261" y="53" width="11" height="11" rx="0" ry="0" style="fill:#8cc665;"/><rect x="274" y="53" width="11" height="11" rx="0" ry="0" style="fill:#d6e685;"/><rect x="287" y="53" width="11" height="11" rx="0" ry="0" style="fill:#d6e685;"/><rect x="300" y="53" width="11" height="11" rx="0" ry="0" style="fill:#d6e685;"/><rect x="313" y="53" width="11" height="11" rx="0" ry="0" style="fill:#44a340;"/><rect x="326" y="53" width="11" height="11" rx="0" ry="0" style="fill:#d6e685;"/><rect x="339" y="53" width="11" height="11" rx="0" ry="0" style="fill:#8cc665;"/><rect x="352" y="53" width="11" height="11" rx="0" ry="0" style="fill:#d6e685;"/><rect x="365" y="53" width="11" height="11" rx="0" ry="0" style="fill:#d6e685;"/><rect x="378" y="53" width="11" height="11" rx="0" ry="0" style="fill:#d6e685;"/><rect x="391" y="53" width="11" height="11" rx="0" ry="0" style="fill:#d6e685;"/><rect x="404" y="53" width="11" height="11" rx="0" ry="0" style="fill:#d6e685;"/><rect x="417" y="53" width="11" height="11" rx="0" ry="0" style="fill:#d6e685;"/><rect x="430" y="53" width="11" height="11" rx="0" ry="0" style="fill:#d6e685;"/><rect x="443" y="53" width="11" height="11" rx="0" ry="0" style="fill:#d6e685;"/><rect x="456" y="53" width="11" height="11" rx="0" ry="0" style="fill:#d6e685;"/><rect x="469" y="53" width="11" height="11" rx="0" ry="0" style="fill:#d6e685;"/><rect x="482" y="53" width="11" height="11" rx="0" ry="0" style="fill:#d6e685;"/><rect x="495" y="53" width="11" height="11" rx="0" ry="0" style="fill:#d6e685;"/><rect x="508" y="53" width="11" height="11" rx="0" ry="0" style="fill:#8cc665;"/><rect x="521" y="53" width="11" height="11" rx="0" ry="0" style="fill:#44a340;"/><rect x="534" y="53" width="11" height="11" rx="0" ry="0" style="fill:#d6e685;"/><rect x="547" y="53" width="11" height="11" rx="0" ry="0" style="fill:#d6e685;"/><rect x="560" y="53" width="11" height="11" rx="0" ry="0" style="fill:#1e6823;"/><rect x="573" y="53" width="11" height="11" rx="0" ry="0" style="fill:#8cc665;"/><rect x="586" y="53" width="11" height="11" rx="0" ry="0" style="fill:#d6e685;"/><rect x="599" y="53" width="11" height="11" rx="0" ry="0" style="fill:#44a340;"/><rect x="612" y="53" width="11" height="11" rx="0" ry="0" style="fill:#d6e685;"/><rect x="625" y="53" width="11" height="11" rx="0" ry="0" style="fill:#1e6823;"/><rect x="638" y="53" width="11" height="11" rx="0" ry="0" style="fill:#1e6823;"/><rect x="651" y="53" width="11" height="11" rx="0" ry="0" style="fill:#44a340;"/><rect x="664" y="53" width="11" height="11" rx="0" ry="0" style="fill:#d6e685;"/><rect x="677" y="53" width="11" height="11" rx="0" ry="0" style="fill:#d6e685;"/><rect x="690" y="53" width="11" height="11" rx="0" ry="0" style="fill:#d6e685;"/><rect x="27" y="66" width="11" height="11" rx="0" ry="0" style="fill:#eeeeee;"/><rect x="40" y="66" width="11" height="11" rx="0" ry="0" style="fill:#eeeeee;"/><rect x="53" y="66" width="11" height="11" rx="0" ry="0" style="fill:#eeeeee;"/><rect x="66" y="66" width="11" height="11" rx="0" ry="0" style="fill:#eeeeee;"/><rect x="79" y="66" width="11" height="11" rx="0" ry="0" style="fill:#eeeeee;"/><rect x="92" y="66" width="11" height="11" rx="0" ry="0" style="fill:#eeeeee;"/><rect x="105" y="66" width="11" height="11" rx="0" ry="0" style="fill:#d6e685;"/><rect x="118" y="66" width="11" height="11" rx="0" ry="0" style="fill:#eeeeee;"/><rect x="131" y="66" width="11" height="11" rx="0" ry="0" style="fill:#eeeeee;"/><rect x="144" y="66" width="11" height="11" rx="0" ry="0" style="fill:#eeeeee;"/><rect x="157" y="66" width="11" height="11" rx="0" ry="0" style="fill:#eeeeee;"/><rect x="170" y="66" width="11" height="11" rx="0" ry="0" style="fill:#d6e685;"/><rect x="183" y="66" width="11" height="11" rx="0" ry="0" style="fill:#eeeeee;"/><rect x="196" y="66" width="11" height="11" rx="0" ry="0" style="fill:#eeeeee;"/><rect x="209" y="66" width="11" height="11" rx="0" ry="0" style="fill:#d6e685;"/><rect x="222" y="66" width="11" height="11" rx="0" ry="0" style="fill:#d6e685;"/><rect x="235" y="66" width="11" height="11" rx="0" ry="0" style="fill:#d6e685;"/><rect x="248" y="66" width="11" height="11" rx="0" ry="0" style="fill:#d6e685;"/><rect x="261" y="66" width="11" height="11" rx="0" ry="0" style="fill:#d6e685;"/><rect x="274" y="66" width="11" height="11" rx="0" ry="0" style="fill:#d6e685;"/><rect x="287" y="66" width="11" height="11" rx="0" ry="0" style="fill:#d6e685;"/><rect x="300" y="66" width="11" height="11" rx="0" ry="0" style="fill:#d6e685;"/><rect x="313" y="66" width="11" height="11" rx="0" ry="0" style="fill:#8cc665;"/><rect x="326" y="66" width="11" height="11" rx="0" ry="0" style="fill:#d6e685;"/><rect x="339" y="66" width="11" height="11" rx="0" ry="0" style="fill:#44a340;"/><rect x="352" y="66" width="11" height="11" rx="0" ry="0" style="fill:#d6e685;"/><rect x="365" y="66" width="11" height="11" rx="0" ry="0" style="fill:#8cc665;"/><rect x="378" y="66" width="11" height="11" rx="0" ry="0" style="fill:#d6e685;"/><rect x="391" y="66" width="11" height="11" rx="0" ry="0" style="fill:#d6e685;"/><rect x="404" y="66" width="11" height="11" rx="0" ry="0" style="fill:#d6e685;"/><rect x="417" y="66" width="11" height="11" rx="0" ry="0" style="fill:#d6e685;"/><rect x="430" y="66" width="11" height="11" rx="0" ry="0" style="fill:#d6e685;"/><rect x="443" y="66" width="11" height="11" rx="0" ry="0" style="fill:#d6e685;"/><rect x="456" y="66" width="11" height="11" rx="0" ry="0" style="fill:#8cc665;"/><rect x="469" y="66" width="11" height="11" rx="0" ry="0" style="fill:#d6e685;"/><rect x="482" y="66" width="11" height="11" rx="0" ry="0" style="fill:#d6e685;"/><rect x="495" y="66" width="11" height="11" rx="0" ry="0" style="fill:#d6e685;"/><rect x="508" y="66" width="11" height="11" rx="0" ry="0" style="fill:#1e6823;"/><rect x="521" y="66" width="11" height="11" rx="0" ry="0" style="fill:#d6e685;"/><rect x="534" y="66" width="11" height="11" rx="0" ry="0" style="fill:#d6e685;"/><rect x="547" y="66" width="11" height="11" rx="0" ry="0" style="fill:#8cc665;"/><rect x="560" y="66" width="11" height="11" rx="0" ry="0" style="fill:#8cc665;"/><rect x="573" y="66" width="11" height="11" rx="0" ry="0" style="fill:#d6e685;"/><rect x="586" y="66" width="11" height="11" rx="0" ry="0" style="fill:#44a340;"/><rect x="599" y="66" width="11" height="11" rx="0" ry="0" style="fill:#44a340;"/><rect x="612" y="66" width="11" height="11" rx="0" ry="0" style="fill:#d6e685;"/><rect x="625" y="66" width="11" height="11" rx="0" ry="0" style="fill:#44a340;"/><rect x="638" y="66" width="11" height="11" rx="0" ry="0" style="fill:#8cc665;"/><rect x="651" y="66" width="11" height="11" rx="0" ry="0" style="fill:#d6e685;"/><rect x="664" y="66" width="11" height="11" rx="0" ry="0" style="fill:#eeeeee;"/><rect x="677" y="66" width="11" height="11" rx="0" ry="0" style="fill:#d6e685;"/><rect x="690" y="66" width="11" height="11" rx="0" ry="0" style="fill:#d6e685;"/><rect x="14" y="79" width="11" height="11" rx="0" ry="0" style="fill:#eeeeee;"/><rect x="27" y="79" width="11" height="11" rx="0" ry="0" style="fill:#d6e685;"/><rect x="40" y="79" width="11" height="11" rx="0" ry="0" style="fill:#eeeeee;"/><rect x="53" y="79" width="11" height="11" rx="0" ry="0" style="fill:#eeeeee;"/><rect x="66" y="79" width="11" height="11" rx="0" ry="0" style="fill:#eeeeee;"/><rect x="79" y="79" width="11" height="11" rx="0" ry="0" style="fill:#d6e685;"/><rect x="92" y="79" width="11" height="11" rx="0" ry="0" style="fill:#eeeeee;"/><rect x="105" y="79" width="11" height="11" rx="0" ry="0" style="fill:#eeeeee;"/><rect x="118" y="79" width="11" height="11" rx="0" ry="0" style="fill:#eeeeee;"/><rect x="131" y="79" width="11" height="11" rx="0" ry="0" style="fill:#eeeeee;"/><rect x="144" y="79" width="11" height="11" rx="0" ry="0" style="fill:#eeeeee;"/><rect x="157" y="79" width="11" height="11" rx="0" ry="0" style="fill:#eeeeee;"/><rect x="170" y="79" width="11" height="11" rx="0" ry="0" style="fill:#eeeeee;"/><rect x="183" y="79" width="11" height="11" rx="0" ry="0" style="fill:#eeeeee;"/><rect x="196" y="79" width="11" height="11" rx="0" ry="0" style="fill:#8cc665;"/><rect x="209" y="79" width="11" height="11" rx="0" ry="0" style="fill:#d6e685;"/><rect x="222" y="79" width="11" height="11" rx="0" ry="0" style="fill:#8cc665;"/><rect x="235" y="79" width="11" height="11" rx="0" ry="0" style="fill:#d6e685;"/><rect x="248" y="79" width="11" height="11" rx="0" ry="0" style="fill:#d6e685;"/><rect x="261" y="79" width="11" height="11" rx="0" ry="0" style="fill:#d6e685;"/><rect x="274" y="79" width="11" height="11" rx="0" ry="0" style="fill:#d6e685;"/><rect x="287" y="79" width="11" height="11" rx="0" ry="0" style="fill:#d6e685;"/><rect x="300" y="79" width="11" height="11" rx="0" ry="0" style="fill:#d6e685;"/><rect x="313" y="79" width="11" height="11" rx="0" ry="0" style="fill:#8cc665;"/><rect x="326" y="79" width="11" height="11" rx="0" ry="0" style="fill:#8cc665;"/><rect x="339" y="79" width="11" height="11" rx="0" ry="0" style="fill:#8cc665;"/><rect x="352" y="79" width="11" height="11" rx="0" ry="0" style="fill:#8cc665;"/><rect x="365" y="79" width="11" height="11" rx="0" ry="0" style="fill:#d6e685;"/><rect x="378" y="79" width="11" height="11" rx="0" ry="0" style="fill:#d6e685;"/><rect x="391" y="79" width="11" height="11" rx="0" ry="0" style="fill:#d6e685;"/><rect x="404" y="79" width="11" height="11" rx="0" ry="0" style="fill:#8cc665;"/><rect x="417" y="79" width="11" height="11" rx="0" ry="0" style="fill:#d6e685;"/><rect x="430" y="79" width="11" height="11" rx="0" ry="0" style="fill:#1e6823;"/><rect x="443" y="79" width="11" height="11" rx="0" ry="0" style="fill:#d6e685;"/><rect x="456" y="79" width="11" height="11" rx="0" ry="0" style="fill:#d6e685;"/><rect x="469" y="79" width="11" height="11" rx="0" ry="0" style="fill:#d6e685;"/><rect x="482" y="79" width="11" height="11" rx="0" ry="0" style="fill:#1e6823;"/><rect x="495" y="79" width="11" height="11" rx="0" ry="0" style="fill:#8cc665;"/><rect x="508" y="79" width="11" height="11" rx="0" ry="0" style="fill:#1e6823;"/><rect x="521" y="79" width="11" height="11" rx="0" ry="0" style="fill:#8cc665;"/><rect x="534" y="79" width="11" height="11" rx="0" ry="0" style="fill:#44a340;"/><rect x="547" y="79" width="11" height="11" rx="0" ry="0" style="fill:#8cc665;"/><rect x="560" y="79" width="11" height="11" rx="0" ry="0" style="fill:#d6e685;"/><rect x="573" y="79" width="11" height="11" rx="0" ry="0" style="fill:#d6e685;"/><rect x="586" y="79" width="11" height="11" rx="0" ry="0" style="fill:#8cc665;"/><rect x="599" y="79" width="11" height="11" rx="0" ry="0" style="fill:#d6e685;"/><rect x="612" y="79" width="11" height="11" rx="0" ry="0" style="fill:#8cc665;"/><rect x="625" y="79" width="11" height="11" rx="0" ry="0" style="fill:#8cc665;"/><rect x="638" y="79" width="11" height="11" rx="0" ry="0" style="fill:#8cc665;"/><rect x="651" y="79" width="11" height="11" rx="0" ry="0" style="fill:#1e6823;"/><rect x="664" y="79" width="11" height="11" rx="0" ry="0" style="fill:#1e6823;"/><rect x="677" y="79" width="11" height="11" rx="0" ry="0" style="fill:#d6e685;"/><rect x="690" y="79" width="11" height="11" rx="0" ry="0" style="fill:#d6e685;"/><rect x="14" y="92" width="11" height="11" rx="0" ry="0" style="fill:#eeeeee;"/><rect x="27" y="92" width="11" height="11" rx="0" ry="0" style="fill:#eeeeee;"/><rect x="40" y="92" width="11" height="11" rx="0" ry="0" style="fill:#eeeeee;"/><rect x="53" y="92" width="11" height="11" rx="0" ry="0" style="fill:#eeeeee;"/><rect x="66" y="92" width="11" height="11" rx="0" ry="0" style="fill:#eeeeee;"/><rect x="79" y="92" width="11" height="11" rx="0" ry="0" style="fill:#d6e685;"/><rect x="92" y="92" width="11" height="11" rx="0" ry="0" style="fill:#eeeeee;"/><rect x="105" y="92" width="11" height="11" rx="0" ry="0" style="fill:#eeeeee;"/><rect x="118" y="92" width="11" height="11" rx="0" ry="0" style="fill:#eeeeee;"/><rect x="131" y="92" width="11" height="11" rx="0" ry="0" style="fill:#eeeeee;"/><rect x="144" y="92" width="11" height="11" rx="0" ry="0" style="fill:#eeeeee;"/><rect x="157" y="92" width="11" height="11" rx="0" ry="0" style="fill:#eeeeee;"/><rect x="170" y="92" width="11" height="11" rx="0" ry="0" style="fill:#eeeeee;"/><rect x="183" y="92" width="11" height="11" rx="0" ry="0" style="fill:#8cc665;"/><rect x="196" y="92" width="11" height="11" rx="0" ry="0" style="fill:#8cc665;"/><rect x="209" y="92" width="11" height="11" rx="0" ry="0" style="fill:#d6e685;"/><rect x="222" y="92" width="11" height="11" rx="0" ry="0" style="fill:#d6e685;"/><rect x="235" y="92" width="11" height="11" rx="0" ry="0" style="fill:#d6e685;"/><rect x="248" y="92" width="11" height="11" rx="0" ry="0" style="fill:#8cc665;"/><rect x="261" y="92" width="11" height="11" rx="0" ry="0" style="fill:#d6e685;"/><rect x="274" y="92" width="11" height="11" rx="0" ry="0" style="fill:#44a340;"/><rect x="287" y="92" width="11" height="11" rx="0" ry="0" style="fill:#44a340;"/><rect x="300" y="92" width="11" height="11" rx="0" ry="0" style="fill:#d6e685;"/><rect x="313" y="92" width="11" height="11" rx="0" ry="0" style="fill:#8cc665;"/><rect x="326" y="92" width="11" height="11" rx="0" ry="0" style="fill:#8cc665;"/><rect x="339" y="92" width="11" height="11" rx="0" ry="0" style="fill:#d6e685;"/><rect x="352" y="92" width="11" height="11" rx="0" ry="0" style="fill:#d6e685;"/><rect x="365" y="92" width="11" height="11" rx="0" ry="0" style="fill:#d6e685;"/><rect x="378" y="92" width="11" height="11" rx="0" ry="0" style="fill:#d6e685;"/><rect x="391" y="92" width="11" height="11" rx="0" ry="0" style="fill:#d6e685;"/><rect x="404" y="92" width="11" height="11" rx="0" ry="0" style="fill:#d6e685;"/><rect x="417" y="92" width="11" height="11" rx="0" ry="0" style="fill:#8cc665;"/><rect x="430" y="92" width="11" height="11" rx="0" ry="0" style="fill:#d6e685;"/><rect x="443" y="92" width="11" height="11" rx="0" ry="0" style="fill:#d6e685;"/><rect x="456" y="92" width="11" height="11" rx="0" ry="0" style="fill:#d6e685;"/><rect x="469" y="92" width="11" height="11" rx="0" ry="0" style="fill:#d6e685;"/><rect x="482" y="92" width="11" height="11" rx="0" ry="0" style="fill:#d6e685;"/><rect x="495" y="92" width="11" height="11" rx="0" ry="0" style="fill:#8cc665;"/><rect x="508" y="92" width="11" height="11" rx="0" ry="0" style="fill:#d6e685;"/><rect x="521" y="92" width="11" height="11" rx="0" ry="0" style="fill:#44a340;"/><rect x="534" y="92" width="11" height="11" rx="0" ry="0" style="fill:#44a340;"/><rect x="547" y="92" width="11" height="11" rx="0" ry="0" style="fill:#1e6823;"/><rect x="560" y="92" width="11" height="11" rx="0" ry="0" style="fill:#8cc665;"/><rect x="573" y="92" width="11" height="11" rx="0" ry="0" style="fill:#44a340;"/><rect x="586" y="92" width="11" height="11" rx="0" ry="0" style="fill:#d6e685;"/><rect x="599" y="92" width="11" height="11" rx="0" ry="0" style="fill:#8cc665;"/><rect x="612" y="92" width="11" height="11" rx="0" ry="0" style="fill:#8cc665;"/><rect x="625" y="92" width="11" height="11" rx="0" ry="0" style="fill:#44a340;"/><rect x="638" y="92" width="11" height="11" rx="0" ry="0" style="fill:#44a340;"/><rect x="651" y="92" width="11" height="11" rx="0" ry="0" style="fill:#d6e685;"/><rect x="664" y="92" width="11" height="11" rx="0" ry="0" style="fill:#8cc665;"/><rect x="677" y="92" width="11" height="11" rx="0" ry="0" style="fill:#d6e685;"/><rect x="690" y="92" width="11" height="11" rx="0" ry="0" style="fill:#d6e685;"/><text x="4" y="88" style="fill:#ccc;text-anchor:middle;text-align:center;font:9px Helvetica, arial, freesans, clean, sans-serif;white-space:nowrap;display:display;"><tspan x="4" dy="0em">F</tspan></text><text x="4" y="101" style="fill:#ccc;text-anchor:middle;text-align:center;font:9px Helvetica, arial, freesans, clean, sans-serif;white-space:nowrap;display:none;"><tspan x="4" dy="0em">S</tspan></text><text x="4" y="23" style="fill:#ccc;text-anchor:middle;text-align:center;font:9px Helvetica, arial, freesans, clean, sans-serif;white-space:nowrap;display:none;"><tspan x="4" dy="0em">S</tspan></text><text x="4" y="36" style="fill:#ccc;text-anchor:middle;text-align:center;font:9px Helvetica, arial, freesans, clean, sans-serif;white-space:nowrap;display:display;"><tspan x="4" dy="0em">M</tspan></text><text x="4" y="49" style="fill:#ccc;text-anchor:middle;text-align:center;font:9px Helvetica, arial, freesans, clean, sans-serif;white-space:nowrap;display:none;"><tspan x="4" dy="0em">T</tspan></text><text x="4" y="62" style="fill:#ccc;text-anchor:middle;text-align:center;font:9px Helvetica, arial, freesans, clean, sans-serif;white-space:nowrap;display:display;"><tspan x="4" dy="0em">W</tspan></text><text x="4" y="75" style="fill:#ccc;text-anchor:middle;text-align:center;font:9px Helvetica, arial, freesans, clean, sans-serif;white-space:nowrap;display:none;"><tspan x="4" dy="0em">T</tspan></text><text x="14" y="9" style="fill:#aaa;text-align:center;font:10px Helvetica, arial, freesans, clean, sans-serif;white-space:nowrap;display:block;"><tspan x="14" dy="0em">May</tspan></text><text x="53" y="9" style="fill:#aaa;text-align:center;font:10px Helvetica, arial, freesans, clean, sans-serif;white-space:nowrap;display:block;"><tspan x="53" dy="0em">Jun</tspan></text><text x="118" y="9" style="fill:#aaa;text-align:center;font:10px Helvetica, arial, freesans, clean, sans-serif;white-space:nowrap;display:block;"><tspan x="118" dy="0em">Jul</tspan></text><text x="170" y="9" style="fill:#aaa;text-align:center;font:10px Helvetica, arial, freesans, clean, sans-serif;white-space:nowrap;display:block;"><tspan x="170" dy="0em">Aug</tspan></text><text x="222" y="9" style="fill:#aaa;text-align:center;font:10px Helvetica, arial, freesans, clean, sans-serif;white-space:nowrap;display:block;"><tspan x="222" dy="0em">Sep</tspan></text><text x="287" y="9" style="fill:#aaa;text-align:center;font:10px Helvetica, arial, freesans, clean, sans-serif;white-space:nowrap;display:block;"><tspan x="287" dy="0em">Oct</tspan></text><text x="339" y="9" style="fill:#aaa;text-align:center;font:10px Helvetica, arial, freesans, clean, sans-serif;white-space:nowrap;display:block;"><tspan x="339" dy="0em">Nov</tspan></text><text x="391" y="9" style="fill:#aaa;text-align:center;font:10px Helvetica, arial, freesans, clean, sans-serif;white-space:nowrap;display:block;"><tspan x="391" dy="0em">Dec</tspan></text><text x="456" y="9" style="fill:#aaa;text-align:center;font:10px Helvetica, arial, freesans, clean, sans-serif;white-space:nowrap;display:block;"><tspan x="456" dy="0em">Jan</tspan></text><text x="521" y="9" style="fill:#aaa;text-align:center;font:10px Helvetica, arial, freesans, clean, sans-serif;white-space:nowrap;display:block;"><tspan x="521" dy="0em">Feb</tspan></text><text x="573" y="9" style="fill:#aaa;text-align:center;font:10px Helvetica, arial, freesans, clean, sans-serif;white-space:nowrap;display:block;"><tspan x="573" dy="0em">Mar</tspan></text><text x="638" y="9" style="fill:#aaa;text-align:center;font:10px Helvetica, arial, freesans, clean, sans-serif;white-space:nowrap;display:block;"><tspan x="638" dy="0em">Apr</tspan></text></svg>