<?xml version="1.0" standalone="no"?>
<!DOCTYPE svg PUBLIC "-//W3C//DTD SVG 1.1//EN"
  "http://www.w3.org/Graphics/SVG/1.1/DTD/svg11.dtd">
<svg width="689" height="91" version="1.1"
  xmlns="http://www.w3.org/2000/svg">
<rect x="2" y="2" width="11" height="11" rx="0" ry="0" style="fill:#eeeeee;"/><rect x="15" y="2" width="11" height="11" rx="0" ry="0" style="fill:#d6e685;"/><rect x="28" y="2" width="11" height="11" rx="0" ry="0" style="fill:#eeeeee;"/><rect x="41" y="2" width="11" height="11" rx="0" ry="0" style="fill:#eeeeee;"/><rect x="54" y="2" width="11" height="11" rx="0" ry="0" style="fill:#eeeeee;"/><rect x="67" y="2" width="11" height="11" rx="0" ry="0" style="fill:#eeeeee;"/><rect x="80" y="2" width="11" height="11" rx="0" ry="0" style="fill:#eeeeee;"/><rect x="93" y="2" width="11" height="11" rx="0" ry="0" style="fill:#eeeeee;"/><rect x="106" y="2" width="11" height="11" rx="0" ry="0" style="fill:#eeeeee;"/><rect x="119" y="2" width="11" height="11" rx="0" ry="0" style="fill:#eeeeee;"/><rect x="132" y="2" width="11" height="11" rx="0" ry="0" style="fill:#eeeeee;"/><rect x="145" y="2" width="11" height="11" rx="0" ry="0" style="fill:#eeeeee;"/><rect x="158" y="2" width="11" height="11" rx="0" ry="0" style="fill:#eeeeee;"/><rect x="171" y="2" width="11" height="11" rx="0" ry="0" style="fill:#eeeeee;"/><rect x="184" y="2" width="11" height="11" rx="0" ry="0" style="fill:#eeeeee;"/><rect x="197" y="2" width="11" height="11" rx="0" ry="0" style="fill:#eeeeee;"/><rect x="210" y="2" width="11" height="11" rx="0" ry="0" style="fill:#eeeeee;"/><rect x="223" y="2" width="11" height="11" rx="0" ry="0" style="fill:#eeeeee;"/><rect x="236" y="2" width="11" height="11" rx="0" ry="0" style="fill:#8cc665;"/><rect x="249" y="2" width="11" height="11" rx="0" ry="0" style="fill:#d6e685;"/><rect x="262" y="2" width="11" height="11" rx="0" ry="0" style="fill:#eeeeee;"/><rect x="275" y="2" width="11" height="11" rx="0" ry="0" style="fill:#eeeeee;"/><rect x="288" y="2" width="11" height="11" rx="0" ry="0" style="fill:#44a340;"/><rect x="301" y="2" width="11" height="11" rx="0" ry="0" style="fill:#1e6823;"/><rect x="314" y="2" width="11" height="11" rx="0" ry="0" style="fill:#8cc665;"/><rect x="327" y="2" width="11" height="11" rx="0" ry="0" style="fill:#eeeeee;"/><rect x="340" y="2" width="11" height="11" rx="0" ry="0" style="fill:#d6e685;"/><rect x="353" y="2" width="11" height="11" rx="0" ry="0" style="fill:#eeeeee;"/><rect x="366" y="2" width="11" height="11" rx="0" ry="0" style="fill:#eeeeee;"/><rect x="379" y="2" width="11" height="11" rx="0" ry="0" style="fill:#eeeeee;"/><rect x="392" y="2" width="11" height="11" rx="0" ry="0" style="fill:#d6e685;"/><rect x="405" y="2" width="11" height="11" rx="0" ry="0" style="fill:#eeeeee;"/><rect x="418" y="2" width="11" height="11" rx="0" ry="0" style="fill:#eeeeee;"/><rect x="431" y="2" width="11" height="11" rx="0" ry="0" style="fill:#eeeeee;"/><rect x="444" y="2" width="11" height="11" rx="0" ry="0" style="fill:#eeeeee;"/><rect x="457" y="2" width="11" height="11" rx="0" ry="0" style="fill:#eeeeee;"/><rect x="470" y="2" width="11" height="11" rx="0" ry="0" style="fill:#eeeeee;"/><rect x="483" y="2" width="11" height="11" rx="0" ry="0" style="fill:#eeeeee;"/><rect x="496" y="2" width="11" height="11" rx="0" ry="0" style="fill:#eeeeee;"/><rect x="509" y="2" width="11" height="11" rx="0" ry="0" style="fill:#eeeeee;"/><rect x="522" y="2" width="11" height="11" rx="0" ry="0" style="fill:#eeeeee;"/><rect x="535" y="2" width="11" height="11" rx="0" ry="0" style="fill:#eeeeee;"/><rect x="548" y="2" width="11" height="11" rx="0" ry="0" style="fill:#d6e685;"/><rect x="561" y="2" width="11" height="11" rx="0" ry="0" style="fill:#eeeeee;"/><rect x="574" y="2" width="11" height="11" rx="0" ry="0" style="fill:#d6e685;"/><rect x="587" y="2" width="11" height="11" rx="0" ry="0" style="fill:#d6e685;"/><rect x="600" y="2" width="11" height="11" rx="0" ry="0" style="fill:#1e6823;"/><rect x="613" y="2" width="11" height="11" rx="0" ry="0" style="fill:#1e6823;"/><rect x="626" y="2" width="11" height="11" rx="0" ry="0" style="fill:#44a340;"/><rect x="639" y="2" width="11" height="11" rx="0" ry="0" style="fill:#8cc665;"/><rect x="652" y="2" width="11" height="11" rx="0" ry="0" style="fill:#1e6823;"/><rect x="665" y="2" width="11" height="11" rx="0" ry="0" style="fill:#1e6823;"/><rect x="678" y="2" width="11" height="11" rx="0" ry="0" style="fill:#8cc665;"/><rect x="2" y="15" width="11" height="11" rx="0" ry="0" style="fill:#8cc665;"/><rect x="15" y="15" width="11" height="11" rx="0" ry="0" style="fill:#d6e685;"/><rect x="28" y="15" width="11" height="11" rx="0" ry="0" style="fill:#d6e685;"/><rect x="41" y="15" width="11" height="11" rx="0" ry="0" style="fill:#eeeeee;"/><rect x="54" y="15" width="11" height="11" rx="0" ry="0" style="fill:#eeeeee;"/><rect x="67" y="15" width="11" height="11" rx="0" ry="0" style="fill:#eeeeee;"/><rect x="80" y="15" width="11" height="11" rx="0" ry="0" style="fill:#eeeeee;"/><rect x="93" y="15" width="11" height="11" rx="0" ry="0" style="fill:#d6e685;"/><rect x="106" y="15" width="11" height="11" rx="0" ry="0" style="fill:#eeeeee;"/><rect x="119" y="15" width="11" height="11" rx="0" ry="0" style="fill:#eeeeee;"/><rect x="132" y="15" width="11" height="11" rx="0" ry="0" style="fill:#d6e685;"/><rect x="145" y="15" width="11" height="11" rx="0" ry="0" style="fill:#eeeeee;"/><rect x="158" y="15" width="11" height="11" rx="0" ry="0" style="fill:#eeeeee;"/><rect x="171" y="15" width="11" height="11" rx="0" ry="0" style="fill:#d6e685;"/><rect x="184" y="15" width="11" height="11" rx="0" ry="0" style="fill:#d6e685;"/><rect x="197" y="15" width="11" height="11" rx="0" ry="0" style="fill:#eeeeee;"/><rect x="210" y="15" width="11" height="11" rx="0" ry="0" style="fill:#eeeeee;"/><rect x="223" y="15" width="11" height="11" rx="0" ry="0" style="fill:#eeeeee;"/><rect x="236" y="15" width="11" height="11" rx="0" ry="0" style="fill:#d6e685;"/><rect x="249" y="15" width="11" height="11" rx="0" ry="0" style="fill:#eeeeee;"/><rect x="262" y="15" width="11" height="11" rx="0" ry="0" style="fill:#d6e685;"/><rect x="275" y="15" width="11" height="11" rx="0" ry="0" style="fill:#eeeeee;"/><rect x="288" y="15" width="11" height="11" rx="0" ry="0" style="fill:#d6e685;"/><rect x="301" y="15" width="11" height="11" rx="0" ry="0" style="fill:#44a340;"/><rect x="314" y="15" width="11" height="11" rx="0" ry="0" style="fill:#8cc665;"/><rect x="327" y="15" width="11" height="11" rx="0" ry="0" style="fill:#8cc665;"/><rect x="340" y="15" width="11" height="11" rx="0" ry="0" style="fill:#8cc665;"/><rect x="353" y="15" width="11" height="11" rx="0" ry="0" style="fill:#8cc665;"/><rect x="366" y="15" width="11" height="11" rx="0" ry="0" style="fill:#eeeeee;"/><rect x="379" y="15" width="11" height="11" rx="0" ry="0" style="fill:#1e6823;"/><rect x="392" y="15" width="11" height="11" rx="0" ry="0" style="fill:#eeeeee;"/><rect x="405" y="15" width="11" height="11" rx="0" ry="0" style="fill:#eeeeee;"/><rect x="418" y="15" width="11" height="11" rx="0" ry="0" style="fill:#eeeeee;"/><rect x="431" y="15" width="11" height="11" rx="0" ry="0" style="fill:#eeeeee;"/><rect x="444" y="15" width="11" height="11" rx="0" ry="0" style="fill:#eeeeee;"/><rect x="457" y="15" width="11" height="11" rx="0" ry="0" style="fill:#eeeeee;"/><rect x="470" y="15" width="11" height="11" rx="0" ry="0" style="fill:#eeeeee;"/><rect x="483" y="15" width="11" height="11" rx="0" ry="0" style="fill:#eeeeee;"/><rect x="496" y="15" width="11" height="11" rx="0" ry="0" style="fill:#eeeeee;"/><rect x="509" y="15" width="11" height="11" rx="0" ry="0" style="fill:#eeeeee;"/><rect x="522" y="15" width="11" height="11" rx="0" ry="0" style="fill:#eeeeee;"/><rect x="535" y="15" width="11" height="11" rx="0" ry="0" style="fill:#d6e685;"/><rect x="548" y="15" width="11" height="11" rx="0" ry="0" style="fill:#eeeeee;"/><rect x="561" y="15" width="11" height="11" rx="0" ry="0" style="fill:#eeeeee;"/><rect x="574" y="15" width="11" height="11" rx="0" ry="0" style="fill:#d6e685;"/><rect x="587" y="15" width="11" height="11" rx="0" ry="0" style="fill:#d6e685;"/><rect x="600" y="15" width="11" height="11" rx="0" ry="0" style="fill:#44a340;"/><rect x="613" y="15" width="11" height="11" rx="0" ry="0" style="fill:#d6e685;"/><rect x="626" y="15" width="11" height="11" rx="0" ry="0" style="fill:#8cc665;"/><rect x="639" y="15" width="11" height="11" rx="0" ry="0" style="fill:#1e6823;"/><rect x="652" y="15" width="11" height="11" rx="0" ry="0" style="fill:#8cc665;"/><rect x="665" y="15" width="11" height="11" rx="0" ry="0" style="fill:#d6e685;"/><rect x="678" y="15" width="11" height="11" rx="0" ry="0" style="fill:#eeeeee;"/><rect x="2" y="28" width="11" height="11" rx="0" ry="0" style="fill:#8cc665;"/><rect x="15" y="28" width="11" height="11" rx="0" ry="0" style="fill:#d6e685;"/><rect x="28" y="28" width="11" height="11" rx="0" ry="0" style="fill:#eeeeee;"/><rect x="41" y="28" width="11" height="11" rx="0" ry="0" style="fill:#eeeeee;"/><rect x="54" y="28" width="11" height="11" rx="0" ry="0" style="fill:#eeeeee;"/><rect x="67" y="28" width="11" height="11" rx="0" ry="0" style="fill:#eeeeee;"/><rect x="80" y="28" width="11" height="11" rx="0" ry="0" style="fill:#eeeeee;"/><rect x="93" y="28" width="11" height="11" rx="0" ry="0" style="fill:#eeeeee;"/><rect x="106" y="28" width="11" height="11" rx="0" ry="0" style="fill:#eeeeee;"/><rect x="119" y="28" width="11" height="11" rx="0" ry="0" style="fill:#eeeeee;"/><rect x="132" y="28" width="11" height="11" rx="0" ry="0" style="fill:#d6e685;"/><rect x="145" y="28" width="11" height="11" rx="0" ry="0" style="fill:#eeeeee;"/><rect x="158" y="28" width="11" height="11" rx="0" ry="0" style="fill:#d6e685;"/><rect x="171" y="28" width="11" height="11" rx="0" ry="0" style="fill:#eeeeee;"/><rect x="184" y="28" width="11" height="11" rx="0" ry="0" style="fill:#d6e685;"/><rect x="197" y="28" width="11" height="11" rx="0" ry="0" style="fill:#d6e685;"/><rect x="210" y="28" width="11" height="11" rx="0" ry="0" style="fill:#d6e685;"/><rect x="223" y="28" width="11" height="11" rx="0" ry="0" style="fill:#d6e685;"/><rect x="236" y="28" width="11" height="11" rx="0" ry="0" style="fill:#eeeeee;"/><rect x="249" y="28" width="11" height="11" rx="0" ry="0" style="fill:#d6e685;"/><rect x="262" y="28" width="11" height="11" rx="0" ry="0" style="fill:#8cc665;"/><rect x="275" y="28" width="11" height="11" rx="0" ry="0" style="fill:#eeeeee;"/><rect x="288" y="28" width="11" height="11" rx="0" ry="0" style="fill:#d6e685;"/><rect x="301" y="28" width="11" height="11" rx="0" ry="0" style="fill:#eeeeee;"/><rect x="314" y="28" width="11" height="11" rx="0" ry="0" style="fill:#d6e685;"/><rect x="327" y="28" width="11" height="11" rx="0" ry="0" style="fill:#1e6823;"/><rect x="340" y="28" width="11" height="11" rx="0" ry="0" style="fill:#d6e685;"/><rect x="353" y="28" width="11" height="11" rx="0" ry="0" style="fill:#8cc665;"/><rect x="366" y="28" width="11" height="11" rx="0" ry="0" style="fill:#eeeeee;"/><rect x="379" y="28" width="11" height="11" rx="0" ry="0" style="fill:#eeeeee;"/><rect x="392" y="28" width="11" height="11" rx="0" ry="0" style="fill:#eeeeee;"/><rect x="405" y="28" width="11" height="11" rx="0" ry="0" style="fill:#eeeeee;"/><rect x="418" y="28" width="11" height="11" rx="0" ry="0" style="fill:#eeeeee;"/><rect x="431" y="28" width="11" height="11" rx="0" ry="0" style="fill:#eeeeee;"/><rect x="444" y="28" width="11" height="11" rx="0" ry="0" style="fill:#eeeeee;"/><rect x="457" y="28" width="11" height="11" rx="0" ry="0" style="fill:#eeeeee;"/><rect x="470" y="28" width="11" height="11" rx="0" ry="0" style="fill:#eeeeee;"/><rect x="483" y="28" width="11" height="11" rx="0" ry="0" style="fill:#8cc665;"/><rect x="496" y="28" width="11" height="11" rx="0" ry="0" style="fill:#eeeeee;"/><rect x="509" y="28" width="11" height="11" rx="0" ry="0" style="fill:#eeeeee;"/><rect x="522" y="28" width="11" height="11" rx="0" ry="0" style="fill:#eeeeee;"/><rect x="535" y="28" width="11" height="11" rx="0" ry="0" style="fill:#eeeeee;"/><rect x="548" y="28" width="11" height="11" rx="0" ry="0" style="fill:#eeeeee;"/><rect x="561" y="28" width="11" height="11" rx="0" ry="0" style="fill:#8cc665;"/><rect x="574" y="28" width="11" height="11" rx="0" ry="0" style="fill:#d6e685;"/><rect x="587" y="28" width="11" height="11" rx="0" ry="0" style="fill:#d6e685;"/><rect x="600" y="28" width="11" height="11" rx="0" ry="0" style="fill:#8cc665;"/><rect x="613" y="28" width="11" height="11" rx="0" ry="0" style="fill:#44a340;"/><rect x="626" y="28" width="11" height="11" rx="0" ry="0" style="fill:#1e6823;"/><rect x="639" y="28" width="11" height="11" rx="0" ry="0" style="fill:#d6e685;"/><rect x="652" y="28" width="11" height="11" rx="0" ry="0" style="fill:#8cc665;"/><rect x="665" y="28" width="11" height="11" rx="0" ry="0" style="fill:#8cc665;"/><rect x="2" y="41" width="11" height="11" rx="0" ry="0" style="fill:#d6e685;"/><rect x="15" y="41" width="11" height="11" rx="0" ry="0" style="fill:#eeeeee;"/><rect x="28" y="41" width="11" height="11" rx="0" ry="0" style="fill:#eeeeee;"/><rect x="41" y="41" width="11" height="11" rx="0" ry="0" style="fill:#eeeeee;"/><rect x="54" y="41" width="11" height="11" rx="0" ry="0" style="fill:#eeeeee;"/><rect x="67" y="41" width="11" height="11" rx="0" ry="0" style="fill:#eeeeee;"/><rect x="80" y="41" width="11" height="11" rx="0" ry="0" style="fill:#eeeeee;"/><rect x="93" y="41" width="11" height="11" rx="0" ry="0" style="fill:#eeeeee;"/><rect x="106" y="41" width="11" height="11" rx="0" ry="0" style="fill:#eeeeee;"/><rect x="119" y="41" width="11" height="11" rx="0" ry="0" style="fill:#eeeeee;"/><rect x="132" y="41" width="11" height="11" rx="0" ry="0" style="fill:#eeeeee;"/><rect x="145" y="41" width="11" height="11" rx="0" ry="0" style="fill:#eeeeee;"/><rect x="158" y="41" width="11" height="11" rx="0" ry="0" style="fill:#eeeeee;"/><rect x="171" y="41" width="11" height="11" rx="0" ry="0" style="fill:#eeeeee;"/><rect x="184" y="41" width="11" height="11" rx="0" ry="0" style="fill:#eeeeee;"/><rect x="197" y="41" width="11" height="11" rx="0" ry="0" style="fill:#d6e685;"/><rect x="210" y="41" width="11" height="11" rx="0" ry="0" style="fill:#eeeeee;"/><rect x="223" y="41" width="11" height="11" rx="0" ry="0" style="fill:#eeeeee;"/><rect x="236" y="41" width="11" height="11" rx="0" ry="0" style="fill:#d6e685;"/><rect x="249" y="41" width="11" height="11" rx="0" ry="0" style="fill:#d6e685;"/><rect x="262" y="41" width="11" height="11" rx="0" ry="0" style="fill:#d6e685;"/><rect x="275" y="41" width="11" height="11" rx="0" ry="0" style="fill:#eeeeee;"/><rect x="288" y="41" width="11" height="11" rx="0" ry="0" style="fill:#eeeeee;"/><rect x="301" y="41" width="11" height="11" rx="0" ry="0" style="fill:#d6e685;"/><rect x="314" y="41" width="11" height="11" rx="0" ry="0" style="fill:#44a340;"/><rect x="327" y="41" width="11" height="11" rx="0" ry="0" style="fill:#44a340;"/><rect x="340" y="41" width="11" height="11" rx="0" ry="0" style="fill:#eeeeee;"/><rect x="353" y="41" width="11" height="11" rx="0" ry="0" style="fill:#d6e685;"/><rect x="366" y="41" width="11" height="11" rx="0" ry="0" style="fill:#eeeeee;"/><rect x="379" y="41" width="11" height="11" rx="0" ry="0" style="fill:#eeeeee;"/><rect x="392" y="41" width="11" height="11" rx="0" ry="0" style="fill:#eeeeee;"/><rect x="405" y="41" width="11" height="11" rx="0" ry="0" style="fill:#eeeeee;"/><rect x="418" y="41" width="11" height="11" rx="0" ry="0" style="fill:#eeeeee;"/><rect x="431" y="41" width="11" height="11" rx="0" ry="0" style="fill:#eeeeee;"/><rect x="444" y="41" width="11" height="11" rx="0" ry="0" style="fill:#eeeeee;"/><rect x="457" y="41" width="11" height="11" rx="0" ry="0" style="fill:#eeeeee;"/><rect x="470" y="41" width="11" height="11" rx="0" ry="0" style="fill:#eeeeee;"/><rect x="483" y="41" width="11" height="11" rx="0" ry="0" style="fill:#d6e685;"/><rect x="496" y="41" width="11" height="11" rx="0" ry="0" style="fill:#eeeeee;"/><rect x="509" y="41" width="11" height="11" rx="0" ry="0" style="fill:#eeeeee;"/><rect x="522" y="41" width="11" height="11" rx="0" ry="0" style="fill:#d6e685;"/><rect x="535" y="41" width="11" height="11" rx="0" ry="0" style="fill:#eeeeee;"/><rect x="548" y="41" width="11" height="11" rx="0" ry="0" style="fill:#eeeeee;"/><rect x="561" y="41" width="11" height="11" rx="0" ry="0" style="fill:#d6e685;"/><rect x="574" y="41" width="11" height="11" rx="0" ry="0" style="fill:#44a340;"/><rect x="587" y="41" width="11" height="11" rx="0" ry="0" style="fill:#d6e685;"/><rect x="600" y="41" width="11" height="11" rx="0" ry="0" style="fill:#8cc665;"/><rect x="613" y="41" width="11" height="11" rx="0" ry="0" style="fill:#1e6823;"/><rect x="626" y="41" width="11" height="11" rx="0" ry="0" style="fill:#44a340;"/><rect x="639" y="41" width="11" height="11" rx="0" ry="0" style="fill:#8cc665;"/><rect x="652" y="41" width="11" height="11" rx="0" ry="0" style="fill:#d6e685;"/><rect x="665" y="41" width="11" height="11" rx="0" ry="0" style="fill:#d6e685;"/><rect x="2" y="54" width="11" height="11" rx="0" ry="0" style="fill:#eeeeee;"/><rect x="15" y="54" width="11" height="11" rx="0" ry="0" style="fill:#d6e685;"/><rect x="28" y="54" width="11" height="11" rx="0" ry="0" style="fill:#eeeeee;"/><rect x="41" y="54" width="11" height="11" rx="0" ry="0" style="fill:#eeeeee;"/><rect x="54" y="54" width="11" height="11" rx="0" ry="0" style="fill:#eeeeee;"/><rect x="67" y="54" width="11" height="11" rx="0" ry="0" style="fill:#eeeeee;"/><rect x="80" y="54" width="11" height="11" rx="0" ry="0" style="fill:#eeeeee;"/><rect x="93" y="54" width="11" height="11" rx="0" ry="0" style="fill:#eeeeee;"/><rect x="106" y="54" width="11" height="11" rx="0" ry="0" style="fill:#eeeeee;"/><rect x="119" y="54" width="11" height="11" rx="0" ry="0" style="fill:#eeeeee;"/><rect x="132" y="54" width="11" height="11" rx="0" ry="0" style="fill:#eeeeee;"/><rect x="145" y="54" width="11" height="11" rx="0" ry="0" style="fill:#eeeeee;"/><rect x="158" y="54" width="11" height="11" rx="0" ry="0" style="fill:#eeeeee;"/><rect x="171" y="54" width="11" height="11" rx="0" ry="0" style="fill:#eeeeee;"/><rect x="184" y="54" width="11" height="11" rx="0" ry="0" style="fill:#eeeeee;"/><rect x="197" y="54" width="11" height="11" rx="0" ry="0" style="fill:#8cc665;"/><rect x="210" y="54" width="11" height="11" rx="0" ry="0" style="fill:#44a340;"/><rect x="223" y="54" width="11" height="11" rx="0" ry="0" style="fill:#1e6823;"/><rect x="236" y="54" width="11" height="11" rx="0" ry="0" style="fill:#eeeeee;"/><rect x="249" y="54" width="11" height="11" rx="0" ry="0" style="fill:#eeeeee;"/><rect x="262" y="54" width="11" height="11" rx="0" ry="0" style="fill:#44a340;"/><rect x="275" y="54" width="11" height="11" rx="0" ry="0" style="fill:#44a340;"/><rect x="288" y="54" width="11" height="11" rx="0" ry="0" style="fill:#1e6823;"/><rect x="301" y="54" width="11" height="11" rx="0" ry="0" style="fill:#eeeeee;"/><rect x="314" y="54" width="11" height="11" rx="0" ry="0" style="fill:#1e6823;"/><rect x="327" y="54" width="11" height="11" rx="0" ry="0" style="fill:#8cc665;"/><rect x="340" y="54" width="11" height="11" rx="0" ry="0" style="fill:#eeeeee;"/><rect x="353" y="54" width="11" height="11" rx="0" ry="0" style="fill:#eeeeee;"/><rect x="366" y="54" width="11" height="11" rx="0" ry="0" style="fill:#eeeeee;"/><rect x="379" y="54" width="11" height="11" rx="0" ry="0" style="fill:#d6e685;"/><rect x="392" y="54" width="11" height="11" rx="0" ry="0" style="fill:#eeeeee;"/><rect x="405" y="54" width="11" height="11" rx="0" ry="0" style="fill:#eeeeee;"/><rect x="418" y="54" width="11" height="11" rx="0" ry="0" style="fill:#eeeeee;"/><rect x="431" y="54" width="11" height="11" rx="0" ry="0" style="fill:#eeeeee;"/><rect x="444" y="54" width="11" height="11" rx="0" ry="0" style="fill:#eeeeee;"/><rect x="457" y="54" width="11" height="11" rx="0" ry="0" style="fill:#eeeeee;"/><rect x="470" y="54" width="11" height="11" rx="0" ry="0" style="fill:#d6e685;"/><rect x="483" y="54" width="11" height="11" rx="0" ry="0" style="fill:#eeeeee;"/><rect x="496" y="54" width="11" height="11" rx="0" ry="0" style="fill:#eeeeee;"/><rect x="509" y="54" width="11" height="11" rx="0" ry="0" style="fill:#eeeeee;"/><rect x="522" y="54" width="11" height="11" rx="0" ry="0" style="fill:#eeeeee;"/><rect x="535" y="54" width="11" height="11" rx="0" ry="0" style="fill:#d6e685;"/><rect x="548" y="54" width="11" height="11" rx="0" ry="0" style="fill:#eeeeee;"/><rect x="561" y="54" width="11" height="11" rx="0" ry="0" style="fill:#eeeeee;"/><rect x="574" y="54" width="11" height="11" rx="0" ry="0" style="fill:#8cc665;"/><rect x="587" y="54" width="11" height="11" rx="0" ry="0" style="fill:#d6e685;"/><rect x="600" y="54" width="11" height="11" rx="0" ry="0" style="fill:#d6e685;"/><rect x="613" y="54" width="11" height="11" rx="0" ry="0" style="fill:#8cc665;"/><rect x="626" y="54" width="11" height="11" rx="0" ry="0" style="fill:#d6e685;"/><rect x="639" y="54" width="11" height="11" rx="0" ry="0" style="fill:#8cc665;"/><rect x="652" y="54" width="11" height="11" rx="0" ry="0" style="fill:#8cc665;"/><rect x="665" y="54" width="11" height="11" rx="0" ry="0" style="fill:#8cc665;"/><rect x="2" y="67" width="11" height="11" rx="0" ry="0" style="fill:#eeeeee;"/><rect x="15" y="67" width="11" height="11" rx="0" ry="0" style="fill:#d6e685;"/><rect x="28" y="67" width="11" height="11" rx="0" ry="0" style="fill:#eeeeee;"/><rect x="41" y="67" width="11" height="11" rx="0" ry="0" style="fill:#eeeeee;"/><rect x="54" y="67" width="11" height="11" rx="0" ry="0" style="fill:#eeeeee;"/><rect x="67" y="67" width="11" height="11" rx="0" ry="0" style="fill:#eeeeee;"/><rect x="80" y="67" width="11" height="11" rx="0" ry="0" style="fill:#d6e685;"/><rect x="93" y="67" width="11" height="11" rx="0" ry="0" style="fill:#eeeeee;"/><rect x="106" y="67" width="11" height="11" rx="0" ry="0" style="fill:#eeeeee;"/><rect x="119" y="67" width="11" height="11" rx="0" ry="0" style="fill:#eeeeee;"/><rect x="132" y="67" width="11" height="11" rx="0" ry="0" style="fill:#eeeeee;"/><rect x="145" y="67" width="11" height="11" rx="0" ry="0" style="fill:#eeeeee;"/><rect x="158" y="67" width="11" height="11" rx="0" ry="0" style="fill:#8cc665;"/><rect x="171" y="67" width="11" height="11" rx="0" ry="0" style="fill:#eeeeee;"/><rect x="184" y="67" width="11" height="11" rx="0" ry="0" style="fill:#eeeeee;"/><rect x="197" y="67" width="11" height="11" rx="0" ry="0" style="fill:#d6e685;"/><rect x="210" y="67" width="11" height="11" rx="0" ry="0" style="fill:#d6e685;"/><rect x="223" y="67" width="11" height="11" rx="0" ry="0" style="fill:#eeeeee;"/><rect x="236" y="67" width="11" height="11" rx="0" ry="0" style="fill:#eeeeee;"/><rect x="249" y="67" width="11" height="11" rx="0" ry="0" style="fill:#eeeeee;"/><rect x="262" y="67" width="11" height="11" rx="0" ry="0" style="fill:#eeeeee;"/><rect x="275" y="67" width="11" height="11" rx="0" ry="0" style="fill:#d6e685;"/><rect x="288" y="67" width="11" height="11" rx="0" ry="0" style="fill:#1e6823;"/><rect x="301" y="67" width="11" height="11" rx="0" ry="0" style="fill:#44a340;"/><rect x="314" y="67" width="11" height="11" rx="0" ry="0" style="fill:#d6e685;"/><rect x="327" y="67" width="11" height="11" rx="0" ry="0" style="fill:#8cc665;"/><rect x="340" y="67" width="11" height="11" rx="0" ry="0" style="fill:#eeeeee;"/><rect x="353" y="67" width="11" height="11" rx="0" ry="0" style="fill:#eeeeee;"/><rect x="366" y="67" width="11" height="11" rx="0" ry="0" style="fill:#eeeeee;"/><rect x="379" y="67" width="11" height="11" rx="0" ry="0" style="fill:#eeeeee;"/><rect x="392" y="67" width="11" height="11" rx="0" ry="0" style="fill:#d6e685;"/><rect x="405" y="67" width="11" height="11" rx="0" ry="0" style="fill:#eeeeee;"/><rect x="418" y="67" width="11" height="11" rx="0" ry="0" style="fill:#eeeeee;"/><rect x="431" y="67" width="11" height="11" rx="0" ry="0" style="fill:#eeeeee;"/><rect x="444" y="67" width="11" height="11" rx="0" ry="0" style="fill:#d6e685;"/><rect x="457" y="67" width="11" height="11" rx="0" ry="0" style="fill:#eeeeee;"/><rect x="470" y="67" width="11" height="11" rx="0" ry="0" style="fill:#eeeeee;"/><rect x="483" y="67" width="11" height="11" rx="0" ry="0" style="fill:#eeeeee;"/><rect x="496" y="67" width="11" height="11" rx="0" ry="0" style="fill:#eeeeee;"/><rect x="509" y="67" width="11" height="11" rx="0" ry="0" style="fill:#eeeeee;"/><rect x="522" y="67" width="11" height="11" rx="0" ry="0" style="fill:#eeeeee;"/><rect x="535" y="67" width="11" height="11" rx="0" ry="0" style="fill:#eeeeee;"/><rect x="548" y="67" width="11" height="11" rx="0" ry="0" style="fill:#eeeeee;"/><rect x="561" y="67" width="11" height="11" rx="0" ry="0" style="fill:#1e6823;"/><rect x="574" y="67" width="11" height="11" rx="0" ry="0" style="fill:#8cc665;"/><rect x="587" y="67" width="11" height="11" rx="0" ry="0" style="fill:#1e6823;"/><rect x="600" y="67" width="11" height="11" rx="0" ry="0" style="fill:#d6e685;"/><rect x="613" y="67" width="11" height="11" rx="0" ry="0" style="fill:#d6e685;"/><rect x="626" y="67" width="11" height="11" rx="0" ry="0" style="fill:#8cc665;"/><rect x="639" y="67" width="11" height="11" rx="0" ry="0" style="fill:#d6e685;"/><rect x="652" y="67" width="11" height="11" rx="0" ry="0" style="fill:#d6e685;"/><rect x="665" y="67" width="11" height="11" rx="0" ry="0" style="fill:#8cc665;"/><rect x="2" y="80" width="11" height="11" rx="0" ry="0" style="fill:#eeeeee;"/><rect x="15" y="80" width="11" height="11" rx="0" ry="0" style="fill:#eeeeee;"/><rect x="28" y="80" width="11" height="11" rx="0" ry="0" style="fill:#eeeeee;"/><rect x="41" y="80" width="11" height="11" rx="0" ry="0" style="fill:#eeeeee;"/><rect x="54" y="80" width="11" height="11" rx="0" ry="0" style="fill:#eeeeee;"/><rect x="67" y="80" width="11" height="11" rx="0" ry="0" style="fill:#eeeeee;"/><rect x="80" y="80" width="11" height="11" rx="0" ry="0" style="fill:#eeeeee;"/><rect x="93" y="80" width="11" height="11" rx="0" ry="0" style="fill:#eeeeee;"/><rect x="106" y="80" width="11" height="11" rx="0" ry="0" style="fill:#eeeeee;"/><rect x="119" y="80" width="11" height="11" rx="0" ry="0" style="fill:#eeeeee;"/><rect x="132" y="80" width="11" height="11" rx="0" ry="0" style="fill:#eeeeee;"/><rect x="145" y="80" width="11" height="11" rx="0" ry="0" style="fill:#eeeeee;"/><rect x="158" y="80" width="11" height="11" rx="0" ry="0" style="fill:#eeeeee;"/><rect x="171" y="80" width="11" height="11" rx="0" ry="0" style="fill:#d6e685;"/><rect x="184" y="80" width="11" height="11" rx="0" ry="0" style="fill:#eeeeee;"/><rect x="197" y="80" width="11" height="11" rx="0" ry="0" style="fill:#eeeeee;"/><rect x="210" y="80" width="11" height="11" rx="0" ry="0" style="fill:#eeeeee;"/><rect x="223" y="80" width="11" height="11" rx="0" ry="0" style="fill:#eeeeee;"/><rect x="236" y="80" width="11" height="11" rx="0" ry="0" style="fill:#44a340;"/><rect x="249" y="80" width="11" height="11" rx="0" ry="0" style="fill:#eeeeee;"/><rect x="262" y="80" width="11" height="11" rx="0" ry="0" style="fill:#eeeeee;"/><rect x="275" y="80" width="11" height="11" rx="0" ry="0" style="fill:#eeeeee;"/><rect x="288" y="80" width="11" height="11" rx="0" ry="0" style="fill:#eeeeee;"/><rect x="301" y="80" width="11" height="11" rx="0" ry="0" style="fill:#1e6823;"/><rect x="314" y="80" width="11" height="11" rx="0" ry="0" style="fill:#8cc665;"/><rect x="327" y="80" width="11" height="11" rx="0" ry="0" style="fill:#d6e685;"/><rect x="340" y="80" width="11" height="11" rx="0" ry="0" style="fill:#d6e685;"/><rect x="353" y="80" width="11" height="11" rx="0" ry="0" style="fill:#eeeeee;"/><rect x="366" y="80" width="11" height="11" rx="0" ry="0" style="fill:#eeeeee;"/><rect x="379" y="80" width="11" height="11" rx="0" ry="0" style="fill:#eeeeee;"/><rect x="392" y="80" width="11" height="11" rx="0" ry="0" style="fill:#eeeeee;"/><rect x="405" y="80" width="11" height="11" rx="0" ry="0" style="fill:#eeeeee;"/><rect x="418" y="80" width="11" height="11" rx="0" ry="0" style="fill:#eeeeee;"/><rect x="431" y="80" width="11" height="11" rx="0" ry="0" style="fill:#eeeeee;"/><rect x="444" y="80" width="11" height="11" rx="0" ry="0" style="fill:#d6e685;"/><rect x="457" y="80" width="11" height="11" rx="0" ry="0" style="fill:#eeeeee;"/><rect x="470" y="80" width="11" height="11" rx="0" ry="0" style="fill:#eeeeee;"/><rect x="483" y="80" width="11" height="11" rx="0" ry="0" style="fill:#eeeeee;"/><rect x="496" y="80" width="11" height="11" rx="0" ry="0" style="fill:#eeeeee;"/><rect x="509" y="80" width="11" height="11" rx="0" ry="0" style="fill:#eeeeee;"/><rect x="522" y="80" width="11" height="11" rx="0" ry="0" style="fill:#eeeeee;"/><rect x="535" y="80" width="11" height="11" rx="0" ry="0" style="fill:#eeeeee;"/><rect x="548" y="80" width="11" height="11" rx="0" ry="0" style="fill:#44a340;"/><rect x="561" y="80" width="11" height="11" rx="0" ry="0" style="fill:#44a340;"/><rect x="574" y="80" width="11" height="11" rx="0" ry="0" style="fill:#d6e685;"/><rect x="587" y="80" width="11" height="11" rx="0" ry="0" style="fill:#d6e685;"/><rect x="600" y="80" width="11" height="11" rx="0" ry="0" style="fill:#d6e685;"/><rect x="613" y="80" width="11" height="11" rx="0" ry="0" style="fill:#44a340;"/><rect x="626" y="80" width="11" height="11" rx="0" ry="0" style="fill:#8cc665;"/><rect x="639" y="80" width="11" height="11" rx="0" ry="0" style="fill:#1e6823;"/><rect x="652" y="80" width="11" height="11" rx="0" ry="0" style="fill:#1e6823;"/><rect x="665" y="80" width="11" height="11" rx="0" ry="0" style="fill:#d6e685;"/></svg>