<?xml version="1.0" standalone="no"?>
<!DOCTYPE svg PUBLIC "-//W3C//DTD SVG 1.1//EN"
  "http://www.w3.org/Graphics/SVG/1.1/DTD/svg11.dtd">
<svg width="1080" height="140" version="1.1"
  xmlns="http://www.w3.org/2000/svg">
<rect x="21" y="1" width="18" height="18" rx="0" ry="0" style="fill:#eeeeee;"/><rect x="41" y="1" width="18" height="18" rx="0" ry="0" style="fill:#d6e685;"/><rect x="61" y="1" width="18" height="18" rx="0" ry="0" style="fill:#eeeeee;"/><rect x="81" y="1" width="18" height="18" rx="0" ry="0" style="fill:#eeeeee;"/><rect x="101" y="1" width="18" height="18" rx="0" ry="0" style="fill:#eeeeee;"/><rect x="121" y="1" width="18" height="18" rx="0" ry="0" style="fill:#eeeeee;"/><rect x="141" y="1" width="18" height="18" rx="0" ry="0" style="fill:#eeeeee;"/><rect x="161" y="1" width="18" height="18" rx="0" ry="0" style="fill:#eeeeee;"/><rect x="181" y="1" width="18" height="18" rx="0" ry="0" style="fill:#eeeeee;"/><rect x="201" y="1" width="18" height="18" rx="0" ry="0" style="fill:#eeeeee;"/><rect x="221" y="1" width="18" height="18" rx="0" ry="0" style="fill:#eeeeee;"/><rect x="241" y="1" width="18" height="18" rx="0" ry="0" style="fill:#eeeeee;"/><rect x="261" y="1" width="18" height="18" rx="0" ry="0" style="fill:#eeeeee;"/><rect x="281" y="1" width="18" height="18" rx="0" ry="0" style="fill:#eeeeee;"/><rect x="301" y="1" width="18" height="18" rx="0" ry="0" style="fill:#eeeeee;"/><rect x="321" y="1" width="18" height="18" rx="0" ry="0" style="fill:#eeeeee;"/><rect x="341" y="1" width="18" height="18" rx="0" ry="0" style="fill:#eeeeee;"/><rect x="361" y="1" width="18" height="18" rx="0" ry="0" style="fill:#eeeeee;"/><rect x="381" y="1" width="18" height="18" rx="0" ry="0" style="fill:#8cc665;"/><rect x="401" y="1" width="18" height="18" rx="0" ry="0" style="fill:#d6e685;"/><rect x="421" y="1" width="18" height="18" rx="0" ry="0" style="fill:#eeeeee;"/><rect x="441" y="1" width="18" height="18" rx="0" ry="0" style="fill:#eeeeee;"/><rect x="461" y="1" width="18" height="18" rx="0" ry="0" style="fill:#44a340;"/><rect x="481" y="1" width="18" height="18" rx="0" ry="0" style="fill:#1e6823;"/><rect x="501" y="1" width="18" height="18" rx="0" ry="0" style="fill:#8cc665;"/><rect x="521" y="1" width="18" height="18" rx="0" ry="0" style="fill:#eeeeee;"/><rect x="541" y="1" width="18" height="18" rx="0" ry="0" style="fill:#d6e685;"/><rect x="561" y="1" width="18" height="18" rx="0" ry="0" style="fill:#eeeeee;"/><rect x="581" y="1" width="18" height="18" rx="0" ry="0" style="fill:#eeeeee;"/><rect x="601" y="1" width="18" height="18" rx="0" ry="0" style="fill:#eeeeee;"/><rect x="621" y="1" width="18" height="18" rx="0" ry="0" style="fill:#d6e685;"/><rect x="641" y="1" width="18" height="18" rx="0" ry="0" style="fill:#eeeeee;"/><rect x="661" y="1" width="18" height="18" rx="0" ry="0" style="fill:#eeeeee;"/><rect x="681" y="1" width="18" height="18" rx="0" ry="0" style="fill:#eeeeee;"/><rect x="701" y="1" width="18" height="18" rx="0" ry="0" style="fill:#eeeeee;"/><rect x="721" y="1" width="18" height="18" rx="0" ry="0" style="fill:#eeeeee;"/><rect x="741" y="1" width="18" height="18" rx="0" ry="0" style="fill:#eeeeee;"/><rect x="761" y="1" width="18" height="18" rx="0" ry="0" style="fill:#eeeeee;"/><rect x="781" y="1" width="18" height="18" rx="0" ry="0" style="fill:#eeeeee;"/><rect x="801" y="1" width="18" height="18" rx="0" ry="0" style="fill:#eeeeee;"/><rect x="821" y="1" width="18" height="18" rx="0" ry="0" style="fill:#eeeeee;"/><rect x="841" y="1" width="18" height="18" rx="0" ry="0" style="fill:#eeeeee;"/><rect x="861" y="1" width="18" height="18" rx="0" ry="0" style="fill:#d6e685;"/><rect x="881" y="1" width="18" height="18" rx="0" ry="0" style="fill:#eeeeee;"/><rect x="901" y="1" width="18" height="18" rx="0" ry="0" style="fill:#d6e685;"/><rect x="921" y="1" width="18" height="18" rx="0" ry="0" style="fill:#d6e685;"/><rect x="941" y="1" width="18" height="18" rx="0" ry="0" style="fill:#1e6823;"/><rect x="961" y="1" width="18" height="18" rx="0" ry="0" style="fill:#1e6823;"/><rect x="981" y="1" width="18" height="18" rx="0" ry="0" style="fill:#44a340;"/><rect x="1001" y="1" width="18" height="18" rx="0" ry="0" style="fill:#8cc665;"/><rect x="1021" y="1" width="18" height="18" rx="0" ry="0" style="fill:#1e6823;"/><rect x="1041" y="1" width="18" height="18" rx="0" ry="0" style="fill:#1e6823;"/><rect x="1061" y="1" width="18" height="18" rx="0" ry="0" style="fill:#d6e685;"/><rect x="21" y="21" width="18" height="18" rx="0" ry="0" style="fill:#8cc665;"/><rect x="41" y="21" width="18" height="18" rx="0" ry="0" style="fill:#d6e685;"/><rect x="61" y="21" width="18" height="18" rx="0" ry="0" style="fill:#d6e685;"/><rect x="81" y="21" width="18" height="18" rx="0" ry="0" style="fill:#eeeeee;"/><rect x="101" y="21" width="18" height="18" rx="0" ry="0" style="fill:#eeeeee;"/><rect x="121" y="21" width="18" height="18" rx="0" ry="0" style="fill:#eeeeee;"/><rect x="141" y="21" width="18" height="18" rx="0" ry="0" style="fill:#eeeeee;"/><rect x="161" y="21" width="18" height="18" rx="0" ry="0" style="fill:#d6e685;"/><rect x="181" y="21" width="18" height="18" rx="0" ry="0" style="fill:#eeeeee;"/><rect x="201" y="21" width="18" height="18" rx="0" ry="0" style="fill:#eeeeee;"/><rect x="221" y="21" width="18" height="18" rx="0" ry="0" style="fill:#d6e685;"/><rect x="241" y="21" width="18" height="18" rx="0" ry="0" style="fill:#eeeeee;"/><rect x="261" y="21" width="18" height="18" rx="0" ry="0" style="fill:#eeeeee;"/><rect x="281" y="21" width="18" height="18" rx="0" ry="0" style="fill:#d6e685;"/><rect x="301" y="21" width="18" height="18" rx="0" ry="0" style="fill:#d6e685;"/><rect x="321" y="21" width="18" height="18" rx="0" ry="0" style="fill:#eeeeee;"/><rect x="341" y="21" width="18" height="18" rx="0" ry="0" style="fill:#eeeeee;"/><rect x="361" y="21" width="18" height="18" rx="0" ry="0" style="fill:#eeeeee;"/><rect x="381" y="21" width="18" height="18" rx="0" ry="0" style="fill:#d6e685;"/><rect x="401" y="21" width="18" height="18" rx="0" ry="0" style="fill:#eeeeee;"/><rect x="421" y="21" width="18" height="18" rx="0" ry="0" style="fill:#d6e685;"/><rect x="441" y="21" width="18" height="18" rx="0" ry="0" style="fill:#eeeeee;"/><rect x="461" y="21" width="18" height="18" rx="0" ry="0" style="fill:#d6e685;"/><rect x="481" y="21" width="18" height="18" rx="0" ry="0" style="fill:#44a340;"/><rect x="501" y="21" width="18" height="18" rx="0" ry="0" style="fill:#8cc665;"/><rect x="521" y="21" width="18" height="18" rx="0" ry="0" style="fill:#8cc665;"/><rect x="541" y="21" width="18" height="18" rx="0" ry="0" style="fill:#8cc665;"/><rect x="561" y="21" width="18" height="18" rx="0" ry="0" style="fill:#8cc665;"/><rect x="581" y="21" width="18" height="18" rx="0" ry="0" style="fill:#eeeeee;"/><rect x="601" y="21" width="18" height="18" rx="0" ry="0" style="fill:#1e6823;"/><rect x="621" y="21" width="18" height="18" rx="0" ry="0" style="fill:#eeeeee;"/><rect x="641" y="21" width="18" height="18" rx="0" ry="0" style="fill:#eeeeee;"/><rect x="661" y="21" width="18" height="18" rx="0" ry="0" style="fill:#eeeeee;"/><rect x="681" y="21" width="18" height="18" rx="0" ry="0" style="fill:#eeeeee;"/><rect x="701" y="21" width="18" height="18" rx="0" ry="0" style="fill:#eeeeee;"/><rect x="721" y="21" width="18" height="18" rx="0" ry="0" style="fill:#eeeeee;"/><rect x="741" y="21" width="18" height="18" rx="0" ry="0" style="fill:#eeeeee;"/><rect x="761" y="21" width="18" height="18" rx="0" ry="0" style="fill:#eeeeee;"/><rect x="781" y="21" width="18" height="18" rx="0" ry="0" style="fill:#eeeeee;"/><rect x="801" y="21" width="18" height="18" rx="0" ry="0" style="fill:#eeeeee;"/><rect x="821" y="21" width="18" height="18" rx="0" ry="0" style="fill:#eeeeee;"/><rect x="841" y="21" width="18" height="18" rx="0" ry="0" style="fill:#d6e685;"/><rect x="861" y="21" width="18" height="18" rx="0" ry="0" style="fill:#eeeeee;"/><rect x="881" y="21" width="18" height="18" rx="0" ry="0" style="fill:#eeeeee;"/><rect x="901" y="21" width="18" height="18" rx="0" ry="0" style="fill:#d6e685;"/><rect x="921" y="21" width="18" height="18" rx="0" ry="0" style="fill:#d6e685;"/><rect x="941" y="21" width="18" height="18" rx="0" ry="0" style="fill:#44a340;"/><rect x="961" y="21" width="18" height="18" rx="0" ry="0" style="fill:#d6e685;"/><rect x="981" y="21" width="18" height="18" rx="0" ry="0" style="fill:#8cc665;"/><rect x="1001" y="21" width="18" height="18" rx="0" ry="0" style="fill:#1e6823;"/><rect x="1021" y="21" width="18" height="18" rx="0" ry="0" style="fill:#8cc665;"/><rect x="1041" y="21" width="18" height="18" rx="0" ry="0" style="fill:#d6e685;"/><rect x="21" y="41" width="18" height="18" rx="0" ry="0" style="fill:#8cc665;"/><rect x="41" y="41" width="18" height="18" rx="0" ry="0" style="fill:#d6e685;"/><rect x="61" y="41" width="18" height="18" rx="0" ry="0" style="fill:#eeeeee;"/><rect x="81" y="41" width="18" height="18" rx="0" ry="0" style="fill:#eeeeee;"/><rect x="101" y="41" width="18" height="18" rx="0" ry="0" style="fill:#eeeeee;"/><rect x="121" y="41" width="18" height="18" rx="0" ry="0" style="fill:#eeeeee;"/><rect x="141" y="41" width="18" height="18" rx="0" ry="0" style="fill:#eeeeee;"/><rect x="161" y="41" width="18" height="18" rx="0" ry="0" style="fill:#eeeeee;"/><rect x="181" y="41" width="18" height="18" rx="0" ry="0" style="fill:#eeeeee;"/><rect x="201" y="41" width="18" height="18" rx="0" ry="0" style="fill:#eeeeee;"/><rect x="221" y="41" width="18" height="18" rx="0" ry="0" style="fill:#d6e685;"/><rect x="241" y="41" width="18" height="18" rx="0" ry="0" style="fill:#eeeeee;"/><rect x="261" y="41" width="18" height="18" rx="0" ry="0" style="fill:#d6e685;"/><rect x="281" y="41" width="18" height="18" rx="0" ry="0" style="fill:#eeeeee;"/><rect x="301" y="41" width="18" height="18" rx="0" ry="0" style="fill:#d6e685;"/><rect x="321" y="41" width="18" height="18" rx="0" ry="0" style="fill:#d6e685;"/><rect x="341" y="41" width="18" height="18" rx="0" ry="0" style="fill:#d6e685;"/><rect x="361" y="41" width="18" height="18" rx="0" ry="0" style="fill:#d6e685;"/><rect x="381" y="41" width="18" height="18" rx="0" ry="0" style="fill:#eeeeee;"/><rect x="401" y="41" width="18" height="18" rx="0" ry="0" style="fill:#d6e685;"/><rect x="421" y="41" width="18" height="18" rx="0" ry="0" style="fill:#8cc665;"/><rect x="441" y="41" width="18" height="18" rx="0" ry="0" style="fill:#eeeeee;"/><rect x="461" y="41" width="18" height="18" rx="0" ry="0" style="fill:#d6e685;"/><rect x="481" y="41" width="18" height="18" rx="0" ry="0" style="fill:#eeeeee;"/><rect x="501" y="41" width="18" height="18" rx="0" ry="0" style="fill:#d6e685;"/><rect x="521" y="41" width="18" height="18" rx="0" ry="0" style="fill:#1e6823;"/><rect x="541" y="41" width="18" height="18" rx="0" ry="0" style="fill:#d6e685;"/><rect x="561" y="41" width="18" height="18" rx="0" ry="0" style="fill:#8cc665;"/><rect x="581" y="41" width="18" height="18" rx="0" ry="0" style="fill:#eeeeee;"/><rect x="601" y="41" width="18" height="18" rx="0" ry="0" style="fill:#eeeeee;"/><rect x="621" y="41" width="18" height="18" rx="0" ry="0" style="fill:#eeeeee;"/><rect x="641" y="41" width="18" height="18" rx="0" ry="0" style="fill:#eeeeee;"/><rect x="661" y="41" width="18" height="18" rx="0" ry="0" style="fill:#eeeeee;"/><rect x="681" y="41" width="18" height="18" rx="0" ry="0" style="fill:#eeeeee;"/><rect x="701" y="41" width="18" height="18" rx="0" ry="0" style="fill:#eeeeee;"/><rect x="721" y="41" width="18" height="18" rx="0" ry="0" style="fill:#eeeeee;"/><rect x="741" y="41" width="18" height="18" rx="0" ry="0" style="fill:#eeeeee;"/><rect x="761" y="41" width="18" height="18" rx="0" ry="0" style="fill:#8cc665;"/><rect x="781" y="41" width="18" height="18" rx="0" ry="0" style="fill:#eeeeee;"/><rect x="801" y="41" width="18" height="18" rx="0" ry="0" style="fill:#eeeeee;"/><rect x="821" y="41" width="18" height="18" rx="0" ry="0" style="fill:#eeeeee;"/><rect x="841" y="41" width="18" height="18" rx="0" ry="0" style="fill:#eeeeee;"/><rect x="861" y="41" width="18" height="18" rx="0" ry="0" style="fill:#eeeeee;"/><rect x="881" y="41" width="18" height="18" rx="0" ry="0" style="fill:#8cc665;"/><rect x="901" y="41" width="18" height="18" rx="0" ry="0" style="fill:#d6e685;"/><rect x="921" y="41" width="18" height="18" rx="0" ry="0" style="fill:#d6e685;"/><rect x="941" y="41" width="18" height="18" rx="0" ry="0" style="fill:#8cc665;"/><rect x="961" y="41" width="18" height="18" rx="0" ry="0" style="fill:#44a340;"/><rect x="981" y="41" width="18" height="18" rx="0" ry="0" style="fill:#1e6823;"/><rect x="1001" y="41" width="18" height="18" rx="0" ry="0" style="fill:#d6e685;"/><rect x="1021" y="41" width="18" height="18" rx="0" ry="0" style="fill:#8cc665;"/><rect x="1041" y="41" width="18" height="18" rx="0" ry="0" style="fill:#8cc665;"/><rect x="21" y="61" width="18" height="18" rx="0" ry="0" style="fill:#d6e685;"/><rect x="41" y="61" width="18" height="18" rx="0" ry="0" style="fill:#eeeeee;"/><rect x="61" y="61" width="18" height="18" rx="0" ry="0" style="fill:#eeeeee;"/><rect x="81" y="61" width="18" height="18" rx="0" ry="0" style="fill:#eeeeee;"/><rect x="101" y="61" width="18" height="18" rx="0" ry="0" style="fill:#eeeeee;"/><rect x="121" y="61" width="18" height="18" rx="0" ry="0" style="fill:#eeeeee;"/><rect x="141" y="61" width="18" height="18" rx="0" ry="0" style="fill:#eeeeee;"/><rect x="161" y="61" width="18" height="18" rx="0" ry="0" style="fill:#eeeeee;"/><rect x="181" y="61" width="18" height="18" rx="0" ry="0" style="fill:#eeeeee;"/><rect x="201" y="61" width="18" height="18" rx="0" ry="0" style="fill:#eeeeee;"/><rect x="221" y="61" width="18" height="18" rx="0" ry="0" style="fill:#eeeeee;"/><rect x="241" y="61" width="18" height="18" rx="0" ry="0" style="fill:#eeeeee;"/><rect x="261" y="61" width="18" height="18" rx="0" ry="0" style="fill:#eeeeee;"/><rect x="281" y="61" width="18" height="18" rx="0" ry="0" style="fill:#eeeeee;"/><rect x="301" y="61" width="18" height="18" rx="0" ry="0" style="fill:#eeeeee;"/><rect x="321" y="61" width="18" height="18" rx="0" ry="0" style="fill:#d6e685;"/><rect x="341" y="61" width="18" height="18" rx="0" ry="0" style="fill:#eeeeee;"/><rect x="361" y="61" width="18" height="18" rx="0" ry="0" style="fill:#eeeeee;"/><rect x="381" y="61" width="18" height="18" rx="0" ry="0" style="fill:#d6e685;"/><rect x="401" y="61" width="18" height="18" rx="0" ry="0" style="fill:#d6e685;"/><rect x="421" y="61" width="18" height="18" rx="0" ry="0" style="fill:#d6e685;"/><rect x="441" y="61" width="18" height="18" rx="0" ry="0" style="fill:#eeeeee;"/><rect x="461" y="61" width="18" height="18" rx="0" ry="0" style="fill:#eeeeee;"/><rect x="481" y="61" width="18" height="18" rx="0" ry="0" style="fill:#d6e685;"/><rect x="501" y="61" width="18" height="18" rx="0" ry="0" style="fill:#44a340;"/><rect x="521" y="61" width="18" height="18" rx="0" ry="0" style="fill:#44a340;"/><rect x="541" y="61" width="18" height="18" rx="0" ry="0" style="fill:#eeeeee;"/><rect x="561" y="61" width="18" height="18" rx="0" ry="0" style="fill:#d6e685;"/><rect x="581" y="61" width="18" height="18" rx="0" ry="0" style="fill:#eeeeee;"/><rect x="601" y="61" width="18" height="18" rx="0" ry="0" style="fill:#eeeeee;"/><rect x="621" y="61" width="18" height="18" rx="0" ry="0" style="fill:#eeeeee;"/><rect x="641" y="61" width="18" height="18" rx="0" ry="0" style="fill:#eeeeee;"/><rect x="661" y="61" width="18" height="18" rx="0" ry="0" style="fill:#eeeeee;"/><rect x="681" y="61" width="18" height="18" rx="0" ry="0" style="fill:#eeeeee;"/><rect x="701" y="61" width="18" height="18" rx="0" ry="0" style="fill:#eeeeee;"/><rect x="721" y="61" width="18" height="18" rx="0" ry="0" style="fill:#eeeeee;"/><rect x="741" y="61" width="18" height="18" rx="0" ry="0" style="fill:#eeeeee;"/><rect x="761" y="61" width="18" height="18" rx="0" ry="0" style="fill:#d6e685;"/><rect x="781" y="61" width="18" height="18" rx="0" ry="0" style="fill:#eeeeee;"/><rect x="801" y="61" width="18" height="18" rx="0" ry="0" style="fill:#eeeeee;"/><rect x="821" y="61" width="18" height="18" rx="0" ry="0" style="fill:#d6e685;"/><rect x="841" y="61" width="18" height="18" rx="0" ry="0" style="fill:#eeeeee;"/><rect x="861" y="61" width="18" height="18" rx="0" ry="0" style="fill:#eeeeee;"/><rect x="881" y="61" width="18" height="18" rx="0" ry="0" style="fill:#d6e685;"/><rect x="901" y="61" width="18" height="18" rx="0" ry="0" style="fill:#44a340;"/><rect x="921" y="61" width="18" height="18" rx="0" ry="0" style="fill:#d6e685;"/><rect x="941" y="61" width="18" height="18" rx="0" ry="0" style="fill:#8cc665;"/><rect x="961" y="61" width="18" height="18" rx="0" ry="0" style="fill:#1e6823;"/><rect x="981" y="61" width="18" height="18" rx="0" ry="0" style="fill:#44a340;"/><rect x="1001" y="61" width="18" height="18" rx="0" ry="0" style="fill:#8cc665;"/><rect x="1021" y="61" width="18" height="18" rx="0" ry="0" style="fill:#d6e685;"/><rect x="1041" y="61" width="18" height="18" rx="0" ry="0" style="fill:#d6e685;"/><rect x="21" y="81" width="18" height="18" rx="0" ry="0" style="fill:#eeeeee;"/><rect x="41" y="81" width="18" height="18" rx="0" ry="0" style="fill:#d6e685;"/><rect x="61" y="81" width="18" height="18" rx="0" ry="0" style="fill:#eeeeee;"/><rect x="81" y="81" width="18" height="18" rx="0" ry="0" style="fill:#eeeeee;"/><rect x="101" y="81" width="18" height="18" rx="0" ry="0" style="fill:#eeeeee;"/><rect x="121" y="81" width="18" height="18" rx="0" ry="0" style="fill:#eeeeee;"/><rect x="141" y="81" width="18" height="18" rx="0" ry="0" style="fill:#eeeeee;"/><rect x="161" y="81" width="18" height="18" rx="0" ry="0" style="fill:#eeeeee;"/><rect x="181" y="81" width="18" height="18" rx="0" ry="0" style="fill:#eeeeee;"/><rect x="201" y="81" width="18" height="18" rx="0" ry="0" style="fill:#eeeeee;"/><rect x="221" y="81" width="18" height="18" rx="0" ry="0" style="fill:#eeeeee;"/><rect x="241" y="81" width="18" height="18" rx="0" ry="0" style="fill:#eeeeee;"/><rect x="261" y="81" width="18" height="18" rx="0" ry="0" style="fill:#eeeeee;"/><rect x="281" y="81" width="18" height="18" rx="0" ry="0" style="fill:#eeeeee;"/><rect x="301" y="81" width="18" height="18" rx="0" ry="0" style="fill:#eeeeee;"/><rect x="321" y="81" width="18" height="18" rx="0" ry="0" style="fill:#8cc665;"/><rect x="341" y="81" width="18" height="18" rx="0" ry="0" style="fill:#44a340;"/><rect x="361" y="81" width="18" height="18" rx="0" ry="0" style="fill:#1e6823;"/><rect x="381" y="81" width="18" height="18" rx="0" ry="0" style="fill:#eeeeee;"/><rect x="401" y="81" width="18" height="18" rx="0" ry="0" style="fill:#eeeeee;"/><rect x="421" y="81" width="18" height="18" rx="0" ry="0" style="fill:#44a340;"/><rect x="441" y="81" width="18" height="18" rx="0" ry="0" style="fill:#44a340;"/><rect x="461" y="81" width="18" height="18" rx="0" ry="0" style="fill:#1e6823;"/><rect x="481" y="81" width="18" height="18" rx="0" ry="0" style="fill:#eeeeee;"/><rect x="501" y="81" width="18" height="18" rx="0" ry="0" style="fill:#1e6823;"/><rect x="521" y="81" width="18" height="18" rx="0" ry="0" style="fill:#8cc665;"/><rect x="541" y="81" width="18" height="18" rx="0" ry="0" style="fill:#eeeeee;"/><rect x="561" y="81" width="18" height="18" rx="0" ry="0" style="fill:#eeeeee;"/><rect x="581" y="81" width="18" height="18" rx="0" ry="0" style="fill:#eeeeee;"/><rect x="601" y="81" width="18" height="18" rx="0" ry="0" style="fill:#d6e685;"/><rect x="621" y="81" width="18" height="18" rx="0" ry="0" style="fill:#eeeeee;"/><rect x="641" y="81" width="18" height="18" rx="0" ry="0" style="fill:#eeeeee;"/><rect x="661" y="81" width="18" height="18" rx="0" ry="0" style="fill:#eeeeee;"/><rect x="681" y="81" width="18" height="18" rx="0" ry="0" style="fill:#eeeeee;"/><rect x="701" y="81" width="18" height="18" rx="0" ry="0" style="fill:#eeeeee;"/><rect x="721" y="81" width="18" height="18" rx="0" ry="0" style="fill:#eeeeee;"/><rect x="741" y="81" width="18" height="18" rx="0" ry="0" style="fill:#d6e685;"/><rect x="761" y="81" width="18" height="18" rx="0" ry="0" style="fill:#eeeeee;"/><rect x="781" y="81" width="18" height="18" rx="0" ry="0" style="fill:#eeeeee;"/><rect x="801" y="81" width="18" height="18" rx="0" ry="0" style="fill:#eeeeee;"/><rect x="821" y="81" width="18" height="18" rx="0" ry="0" style="fill:#eeeeee;"/><rect x="841" y="81" width="18" height="18" rx="0" ry="0" style="fill:#d6e685;"/><rect x="861" y="81" width="18" height="18" rx="0" ry="0" style="fill:#eeeeee;"/><rect x="881" y="81" width="18" height="18" rx="0" ry="0" style="fill:#eeeeee;"/><rect x="901" y="81" width="18" height="18" rx="0" ry="0" style="fill:#8cc665;"/><rect x="921" y="81" width="18" height="18" rx="0" ry="0" style="fill:#d6e685;"/><rect x="941" y="81" width="18" height="18" rx="0" ry="0" style="fill:#d6e685;"/><rect x="961" y="81" width="18" height="18" rx="0" ry="0" style="fill:#8cc665;"/><rect x="981" y="81" width="18" height="18" rx="0" ry="0" style="fill:#d6e685;"/><rect x="1001" y="81" width="18" height="18" rx="0" ry="0" style="fill:#8cc665;"/><rect x="1021" y="81" width="18" height="18" rx="0" ry="0" style="fill:#8cc665;"/><rect x="1041" y="81" width="18" height="18" rx="0" ry="0" style="fill:#8cc665;"/><rect x="21" y="101" width="18" height="18" rx="0" ry="0" style="fill:#eeeeee;"/><rect x="41" y="101" width="18" height="18" rx="0" ry="0" style="fill:#d6e685;"/><rect x="61" y="101" width="18" height="18" rx="0" ry="0" style="fill:#eeeeee;"/><rect x="81" y="101" width="18" height="18" rx="0" ry="0" style="fill:#eeeeee;"/><rect x="101" y="101" width="18" height="18" rx="0" ry="0" style="fill:#eeeeee;"/><rect x="121" y="101" width="18" height="18" rx="0" ry="0" style="fill:#eeeeee;"/><rect x="141" y="101" width="18" height="18" rx="0" ry="0" style="fill:#d6e685;"/><rect x="161" y="101" width="18" height="18" rx="0" ry="0" style="fill:#eeeeee;"/><rect x="181" y="101" width="18" height="18" rx="0" ry="0" style="fill:#eeeeee;"/><rect x="201" y="101" width="18" height="18" rx="0" ry="0" style="fill:#eeeeee;"/><rect x="221" y="101" width="18" height="18" rx="0" ry="0" style="fill:#eeeeee;"/><rect x="241" y="101" width="18" height="18" rx="0" ry="0" style="fill:#eeeeee;"/><rect x="261" y="101" width="18" height="18" rx="0" ry="0" style="fill:#8cc665;"/><rect x="281" y="101" width="18" height="18" rx="0" ry="0" style="fill:#eeeeee;"/><rect x="301" y="101" width="18" height="18" rx="0" ry="0" style="fill:#eeeeee;"/><rect x="321" y="101" width="18" height="18" rx="0" ry="0" style="fill:#d6e685;"/><rect x="341" y="101" width="18" height="18" rx="0" ry="0" style="fill:#d6e685;"/><rect x="361" y="101" width="18" height="18" rx="0" ry="0" style="fill:#eeeeee;"/><rect x="381" y="101" width="18" height="18" rx="0" ry="0" style="fill:#eeeeee;"/><rect x="401" y="101" width="18" height="18" rx="0" ry="0" style="fill:#eeeeee;"/><rect x="421" y="101" width="18" height="18" rx="0" ry="0" style="fill:#eeeeee;"/><rect x="441" y="101" width="18" height="18" rx="0" ry="0" style="fill:#d6e685;"/><rect x="461" y="101" width="18" height="18" rx="0" ry="0" style="fill:#1e6823;"/><rect x="481" y="101" width="18" height="18" rx="0" ry="0" style="fill:#44a340;"/><rect x="501" y="101" width="18" height="18" rx="0" ry="0" style="fill:#d6e685;"/><rect x="521" y="101" width="18" height="18" rx="0" ry="0" style="fill:#8cc665;"/><rect x="541" y="101" width="18" height="18" rx="0" ry="0" style="fill:#eeeeee;"/><rect x="561" y="101" width="18" height="18" rx="0" ry="0" style="fill:#eeeeee;"/><rect x="581" y="101" width="18" height="18" rx="0" ry="0" style="fill:#eeeeee;"/><rect x="601" y="101" width="18" height="18" rx="0" ry="0" style="fill:#eeeeee;"/><rect x="621" y="101" width="18" height="18" rx="0" ry="0" style="fill:#d6e685;"/><rect x="641" y="101" width="18" height="18" rx="0" ry="0" style="fill:#eeeeee;"/><rect x="661" y="101" width="18" height="18" rx="0" ry="0" style="fill:#eeeeee;"/><rect x="681" y="101" width="18" height="18" rx="0" ry="0" style="fill:#eeeeee;"/><rect x="701" y="101" width="18" height="18" rx="0" ry="0" style="fill:#d6e685;"/><rect x="721" y="101" width="18" height="18" rx="0" ry="0" style="fill:#eeeeee;"/><rect x="741" y="101" width="18" height="18" rx="0" ry="0" style="fill:#eeeeee;"/><rect x="761" y="101" width="18" height="18" rx="0" ry="0" style="fill:#eeeeee;"/><rect x="781" y="101" width="18" height="18" rx="0" ry="0" style="fill:#eeeeee;"/><rect x="801" y="101" width="18" height="18" rx="0" ry="0" style="fill:#eeeeee;"/><rect x="821" y="101" width="18" height="18" rx="0" ry="0" style="fill:#eeeeee;"/><rect x="841" y="101" width="18" height="18" rx="0" ry="0" style="fill:#eeeeee;"/><rect x="861" y="101" width="18" height="18" rx="0" ry="0" style="fill:#eeeeee;"/><rect x="881" y="101" width="18" height="18" rx="0" ry="0" style="fill:#1e6823;"/><rect x="901" y="101" width="18" height="18" rx="0" ry="0" style="fill:#8cc665;"/><rect x="921" y="101" width="18" height="18" rx="0" ry="0" style="fill:#1e6823;"/><rect x="941" y="101" width="18" height="18" rx="0" ry="0" style="fill:#d6e685;"/><rect x="961" y="101" width="18" height="18" rx="0" ry="0" style="fill:#d6e685;"/><rect x="981" y="101" width="18" height="18" rx="0" ry="0" style="fill:#8cc665;"/><rect x="1001" y="101" width="18" height="18" rx="0" ry="0" style="fill:#d6e685;"/><rect x="1021" y="101" width="18" height="18" rx="0" ry="0" style="fill:#d6e685;"/><rect x="1041" y="101" width="18" height="18" rx="0" ry="0" style="fill:#8cc665;"/><rect x="1" y="121" width="18" height="18" rx="0" ry="0" style="fill:#eeeeee;"/><rect x="21" y="121" width="18" height="18" rx="0" ry="0" style="fill:#eeeeee;"/><rect x="41" y="121" width="18" height="18" rx="0" ry="0" style="fill:#eeeeee;"/><rect x="61" y="121" width="18" height="18" rx="0" ry="0" style="fill:#eeeeee;"/><rect x="81" y="121" width="18" height="18" rx="0" ry="0" style="fill:#eeeeee;"/><rect x="101" y="121" width="18" height="18" rx="0" ry="0" style="fill:#eeeeee;"/><rect x="121" y="121" width="18" height="18" rx="0" ry="0" style="fill:#eeeeee;"/><rect x="141" y="121" width="18" height="18" rx="0" ry="0" style="fill:#eeeeee;"/><rect x="161" y="121" width="18" height="18" rx="0" ry="0" style="fill:#eeeeee;"/><rect x="181" y="121" width="18" height="18" rx="0" ry="0" style="fill:#eeeeee;"/><rect x="201" y="121" width="18" height="18" rx="0" ry="0" style="fill:#eeeeee;"/><rect x="221" y="121" width="18" height="18" rx="0" ry="0" style="fill:#eeeeee;"/><rect x="241" y="121" width="18" height="18" rx="0" ry="0" style="fill:#eeeeee;"/><rect x="261" y="121" width="18" height="18" rx="0" ry="0" style="fill:#eeeeee;"/><rect x="281" y="121" width="18" height="18" rx="0" ry="0" style="fill:#d6e685;"/><rect x="301" y="121" width="18" height="18" rx="0" ry="0" style="fill:#eeeeee;"/><rect x="321" y="121" width="18" height="18" rx="0" ry="0" style="fill:#eeeeee;"/><rect x="341" y="121" width="18" height="18" rx="0" ry="0" style="fill:#eeeeee;"/><rect x="361" y="121" width="18" height="18" rx="0" ry="0" style="fill:#eeeeee;"/><rect x="381" y="121" width="18" height="18" rx="0" ry="0" style="fill:#44a340;"/><rect x="401" y="121" width="18" height="18" rx="0" ry="0" style="fill:#eeeeee;"/><rect x="421" y="121" width="18" height="18" rx="0" ry="0" style="fill:#eeeeee;"/><rect x="441" y="121" width="18" height="18" rx="0" ry="0" style="fill:#eeeeee;"/><rect x="461" y="121" width="18" height="18" rx="0" ry="0" style="fill:#eeeeee;"/><rect x="481" y="121" width="18" height="18" rx="0" ry="0" style="fill:#1e6823;"/><rect x="501" y="121" width="18" height="18" rx="0" ry="0" style="fill:#8cc665;"/><rect x="521" y="121" width="18" height="18" rx="0" ry="0" style="fill:#d6e685;"/><rect x="541" y="121" width="18" height="18" rx="0" ry="0" style="fill:#d6e685;"/><rect x="561" y="121" width="18" height="18" rx="0" ry="0" style="fill:#eeeeee;"/><rect x="581" y="121" width="18" height="18" rx="0" ry="0" style="fill:#eeeeee;"/><rect x="601" y="121" width="18" height="18" rx="0" ry="0" style="fill:#eeeeee;"/><rect x="621" y="121" width="18" height="18" rx="0" ry="0" style="fill:#eeeeee;"/><rect x="641" y="121" width="18" height="18" rx="0" ry="0" style="fill:#eeeeee;"/><rect x="661" y="121" width="18" height="18" rx="0" ry="0" style="fill:#eeeeee;"/><rect x="681" y="121" width="18" height="18" rx="0" ry="0" style="fill:#eeeeee;"/><rect x="701" y="121" width="18" height="18" rx="0" ry="0" style="fill:#d6e685;"/><rect x="721" y="121" width="18" height="18" rx="0" ry="0" style="fill:#eeeeee;"/><rect x="741" y="121" width="18" height="18" rx="0" ry="0" style="fill:#eeeeee;"/><rect x="761" y="121" width="18" height="18" rx="0" ry="0" style="fill:#eeeeee;"/><rect x="781" y="121" width="18" height="18" rx="0" ry="0" style="fill:#eeeeee;"/><rect x="801" y="121" width="18" height="18" rx="0" ry="0" style="fill:#eeeeee;"/><rect x="821" y="121" width="18" height="18" rx="0" ry="0" style="fill:#eeeeee;"/><rect x="841" y="121" width="18" height="18" rx="0" ry="0" style="fill:#eeeeee;"/><rect x="861" y="121" width="18" height="18" rx="0" ry="0" style="fill:#44a340;"/><rect x="881" y="121" width="18" height="18" rx="0" ry="0" style="fill:#44a340;"/><rect x="901" y="121" width="18" height="18" rx="0" ry="0" style="fill:#d6e685;"/><rect x="921" y="121" width="18" height="18" rx="0" ry="0" style="fill:#d6e685;"/><rect x="941" y="121" width="18" height="18" rx="0" ry="0" style="fill:#d6e685;"/><rect x="961" y="121" width="18" height="18" rx="0" ry="0" style="fill:#44a340;"/><rect x="981" y="121" width="18" height="18" rx="0" ry="0" style="fill:#8cc665;"/><rect x="1001" y="121" width="18" height="18" rx="0" ry="0" style="fill:#1e6823;"/><rect x="1021" y="121" width="18" height="18" rx="0" ry="0" style="fill:#1e6823;"/><rect x="1041" y="121" width="18" height="18" rx="0" ry="0" style="fill:#d6e685;"/></svg>